<mxfile host="app.diagrams.net" modified="2021-02-27T06:02:45.112Z" agent="5.0 (Windows NT 10.0; Win64; x64) AppleWebKit/537.36 (KHTML, like Gecko) Chrome/88.0.4324.190 Safari/537.36" etag="jBO2cNdtmyLOW6nr5Msv" version="14.4.2" type="github">
  <diagram id="ls4vTDnuhOuqtFW1wgkU" name="Page-1">
    <mxGraphModel dx="3690" dy="2109" grid="1" gridSize="10" guides="1" tooltips="1" connect="1" arrows="1" fold="1" page="1" pageScale="1" pageWidth="850" pageHeight="1100" math="0" shadow="0">
      <root>
        <mxCell id="0" />
        <mxCell id="1" parent="0" />
        <mxCell id="JSgQllUmXxI12Hqp71UZ-45" value="" style="edgeStyle=orthogonalEdgeStyle;rounded=0;orthogonalLoop=1;jettySize=auto;html=1;" edge="1" parent="1" source="JSgQllUmXxI12Hqp71UZ-4" target="JSgQllUmXxI12Hqp71UZ-18">
          <mxGeometry relative="1" as="geometry">
            <Array as="points">
              <mxPoint x="-540" y="390" />
              <mxPoint x="-540" y="140" />
            </Array>
          </mxGeometry>
        </mxCell>
        <mxCell id="JSgQllUmXxI12Hqp71UZ-46" value="" style="edgeStyle=orthogonalEdgeStyle;rounded=0;orthogonalLoop=1;jettySize=auto;html=1;" edge="1" parent="1" source="JSgQllUmXxI12Hqp71UZ-4">
          <mxGeometry relative="1" as="geometry">
            <mxPoint x="-400" y="450" as="targetPoint" />
            <Array as="points">
              <mxPoint x="-495" y="430" />
              <mxPoint x="-495" y="450" />
            </Array>
          </mxGeometry>
        </mxCell>
        <mxCell id="JSgQllUmXxI12Hqp71UZ-4" value="" style="shape=internalStorage;whiteSpace=wrap;html=1;backgroundOutline=1;strokeWidth=1;dx=30;dy=30;" vertex="1" parent="1">
          <mxGeometry x="-750" y="370" width="160" height="150" as="geometry" />
        </mxCell>
        <mxCell id="JSgQllUmXxI12Hqp71UZ-8" style="edgeStyle=orthogonalEdgeStyle;rounded=0;orthogonalLoop=1;jettySize=auto;html=1;exitX=0.25;exitY=0;exitDx=0;exitDy=0;entryX=0.25;entryY=1;entryDx=0;entryDy=0;" edge="1" parent="1" source="JSgQllUmXxI12Hqp71UZ-5" target="JSgQllUmXxI12Hqp71UZ-6">
          <mxGeometry relative="1" as="geometry" />
        </mxCell>
        <mxCell id="JSgQllUmXxI12Hqp71UZ-11" value="" style="edgeStyle=orthogonalEdgeStyle;rounded=0;orthogonalLoop=1;jettySize=auto;html=1;" edge="1" parent="1" source="JSgQllUmXxI12Hqp71UZ-5" target="JSgQllUmXxI12Hqp71UZ-4">
          <mxGeometry relative="1" as="geometry">
            <Array as="points">
              <mxPoint x="-820" y="160" />
              <mxPoint x="-820" y="380" />
            </Array>
          </mxGeometry>
        </mxCell>
        <mxCell id="JSgQllUmXxI12Hqp71UZ-5" value="" style="shape=internalStorage;whiteSpace=wrap;html=1;backgroundOutline=1;strokeWidth=1;dx=30;dy=30;" vertex="1" parent="1">
          <mxGeometry x="-780" y="90" width="160" height="160" as="geometry" />
        </mxCell>
        <mxCell id="JSgQllUmXxI12Hqp71UZ-6" value="&lt;font style=&quot;font-size: 18px&quot;&gt;groupLog&lt;/font&gt;" style="text;html=1;align=center;verticalAlign=middle;whiteSpace=wrap;rounded=0;strokeColor=#666666;strokeWidth=1;fontColor=#333333;fillColor=#B5B5B5;" vertex="1" parent="1">
          <mxGeometry x="-780" y="60" width="160" height="30" as="geometry" />
        </mxCell>
        <mxCell id="JSgQllUmXxI12Hqp71UZ-3" value="&lt;font style=&quot;font-size: 18px&quot;&gt;grade&lt;/font&gt;" style="text;html=1;align=center;verticalAlign=middle;whiteSpace=wrap;rounded=0;strokeColor=#666666;strokeWidth=1;fontColor=#333333;fillColor=#B5B5B5;" vertex="1" parent="1">
          <mxGeometry x="-750" y="340" width="160" height="30" as="geometry" />
        </mxCell>
        <mxCell id="JSgQllUmXxI12Hqp71UZ-13" value="&lt;font style=&quot;font-size: 18px&quot;&gt;id&lt;/font&gt;" style="text;html=1;strokeColor=none;fillColor=none;align=center;verticalAlign=middle;whiteSpace=wrap;rounded=0;" vertex="1" parent="1">
          <mxGeometry x="-720" y="370" width="30" height="30" as="geometry" />
        </mxCell>
        <mxCell id="JSgQllUmXxI12Hqp71UZ-14" value="&lt;font style=&quot;font-size: 14px&quot;&gt;PK&lt;/font&gt;" style="text;html=1;strokeColor=none;fillColor=none;align=center;verticalAlign=middle;whiteSpace=wrap;rounded=0;" vertex="1" parent="1">
          <mxGeometry x="-750" y="370" width="30" height="30" as="geometry" />
        </mxCell>
        <mxCell id="JSgQllUmXxI12Hqp71UZ-16" value="&lt;font style=&quot;font-size: 14px&quot;&gt;PK&lt;/font&gt;" style="text;html=1;strokeColor=none;fillColor=none;align=center;verticalAlign=middle;whiteSpace=wrap;rounded=0;" vertex="1" parent="1">
          <mxGeometry x="-780" y="90" width="30" height="30" as="geometry" />
        </mxCell>
        <mxCell id="JSgQllUmXxI12Hqp71UZ-17" value="&lt;font style=&quot;font-size: 18px&quot;&gt;id&lt;/font&gt;" style="text;html=1;strokeColor=none;fillColor=none;align=center;verticalAlign=middle;whiteSpace=wrap;rounded=0;" vertex="1" parent="1">
          <mxGeometry x="-750" y="90" width="30" height="30" as="geometry" />
        </mxCell>
        <mxCell id="JSgQllUmXxI12Hqp71UZ-19" value="&lt;span style=&quot;font-size: 18px&quot;&gt;school&lt;/span&gt;" style="text;html=1;align=center;verticalAlign=middle;whiteSpace=wrap;rounded=0;strokeColor=#666666;strokeWidth=1;fontColor=#333333;fillColor=#B5B5B5;" vertex="1" parent="1">
          <mxGeometry x="-505" y="80" width="160" height="30" as="geometry" />
        </mxCell>
        <mxCell id="JSgQllUmXxI12Hqp71UZ-20" value="" style="shape=internalStorage;whiteSpace=wrap;html=1;backgroundOutline=1;strokeWidth=1;dx=30;dy=30;" vertex="1" parent="1">
          <mxGeometry x="-280" y="110" width="160" height="100" as="geometry" />
        </mxCell>
        <mxCell id="JSgQllUmXxI12Hqp71UZ-21" value="&lt;font style=&quot;font-size: 18px&quot;&gt;city&lt;/font&gt;" style="text;html=1;align=center;verticalAlign=middle;whiteSpace=wrap;rounded=0;strokeColor=#666666;strokeWidth=1;fontColor=#333333;fillColor=#B5B5B5;" vertex="1" parent="1">
          <mxGeometry x="-280" y="80" width="160" height="30" as="geometry" />
        </mxCell>
        <mxCell id="JSgQllUmXxI12Hqp71UZ-23" value="&lt;font style=&quot;font-size: 14px&quot;&gt;PK&lt;/font&gt;" style="text;html=1;strokeColor=none;fillColor=none;align=center;verticalAlign=middle;whiteSpace=wrap;rounded=0;" vertex="1" parent="1">
          <mxGeometry x="-280" y="110" width="30" height="30" as="geometry" />
        </mxCell>
        <mxCell id="JSgQllUmXxI12Hqp71UZ-25" value="" style="shape=internalStorage;whiteSpace=wrap;html=1;backgroundOutline=1;strokeWidth=1;dx=30;dy=30;" vertex="1" parent="1">
          <mxGeometry x="-630" y="560" width="160" height="90" as="geometry" />
        </mxCell>
        <mxCell id="JSgQllUmXxI12Hqp71UZ-26" value="&lt;span style=&quot;font-size: 18px&quot;&gt;classLevel&lt;/span&gt;" style="text;html=1;align=center;verticalAlign=middle;whiteSpace=wrap;rounded=0;strokeColor=#666666;strokeWidth=1;fontColor=#333333;fillColor=#B5B5B5;" vertex="1" parent="1">
          <mxGeometry x="-630" y="530" width="160" height="30" as="geometry" />
        </mxCell>
        <mxCell id="JSgQllUmXxI12Hqp71UZ-37" value="" style="edgeStyle=orthogonalEdgeStyle;rounded=0;orthogonalLoop=1;jettySize=auto;html=1;" edge="1" parent="1" source="JSgQllUmXxI12Hqp71UZ-27" target="JSgQllUmXxI12Hqp71UZ-25">
          <mxGeometry relative="1" as="geometry">
            <Array as="points">
              <mxPoint x="-430" y="480" />
              <mxPoint x="-430" y="595" />
            </Array>
          </mxGeometry>
        </mxCell>
        <mxCell id="JSgQllUmXxI12Hqp71UZ-27" value="" style="shape=internalStorage;whiteSpace=wrap;html=1;backgroundOutline=1;strokeWidth=1;dx=30;dy=30;" vertex="1" parent="1">
          <mxGeometry x="-380" y="400" width="160" height="140" as="geometry" />
        </mxCell>
        <mxCell id="JSgQllUmXxI12Hqp71UZ-28" value="&lt;font style=&quot;font-size: 18px&quot;&gt;class&lt;/font&gt;" style="text;html=1;align=center;verticalAlign=middle;whiteSpace=wrap;rounded=0;strokeColor=#666666;strokeWidth=1;fontColor=#333333;fillColor=#B5B5B5;" vertex="1" parent="1">
          <mxGeometry x="-380" y="370" width="160" height="30" as="geometry" />
        </mxCell>
        <mxCell id="JSgQllUmXxI12Hqp71UZ-38" value="&lt;font style=&quot;font-size: 14px&quot;&gt;PK&lt;/font&gt;" style="text;html=1;strokeColor=none;fillColor=none;align=center;verticalAlign=middle;whiteSpace=wrap;rounded=0;" vertex="1" parent="1">
          <mxGeometry x="-380" y="400" width="30" height="30" as="geometry" />
        </mxCell>
        <mxCell id="JSgQllUmXxI12Hqp71UZ-39" value="&lt;font style=&quot;font-size: 14px&quot;&gt;PK&lt;/font&gt;" style="text;html=1;strokeColor=none;fillColor=none;align=center;verticalAlign=middle;whiteSpace=wrap;rounded=0;" vertex="1" parent="1">
          <mxGeometry x="-630" y="560" width="30" height="30" as="geometry" />
        </mxCell>
        <mxCell id="JSgQllUmXxI12Hqp71UZ-67" value="" style="edgeStyle=orthogonalEdgeStyle;rounded=0;orthogonalLoop=1;jettySize=auto;html=1;" edge="1" parent="1" source="JSgQllUmXxI12Hqp71UZ-18">
          <mxGeometry relative="1" as="geometry">
            <mxPoint x="-280" y="125" as="targetPoint" />
            <Array as="points">
              <mxPoint x="-310" y="165" />
              <mxPoint x="-310" y="125" />
            </Array>
          </mxGeometry>
        </mxCell>
        <mxCell id="JSgQllUmXxI12Hqp71UZ-18" value="" style="shape=internalStorage;whiteSpace=wrap;html=1;backgroundOutline=1;strokeWidth=1;dx=30;dy=30;" vertex="1" parent="1">
          <mxGeometry x="-505" y="110" width="160" height="100" as="geometry" />
        </mxCell>
        <mxCell id="JSgQllUmXxI12Hqp71UZ-51" value="&lt;font style=&quot;font-size: 14px&quot;&gt;PK&lt;/font&gt;" style="text;html=1;strokeColor=none;fillColor=none;align=center;verticalAlign=middle;whiteSpace=wrap;rounded=0;" vertex="1" parent="1">
          <mxGeometry x="-505" y="110" width="30" height="30" as="geometry" />
        </mxCell>
        <mxCell id="JSgQllUmXxI12Hqp71UZ-52" value="&lt;font style=&quot;font-size: 18px&quot;&gt;id&lt;/font&gt;" style="text;html=1;strokeColor=none;fillColor=none;align=center;verticalAlign=middle;whiteSpace=wrap;rounded=0;" vertex="1" parent="1">
          <mxGeometry x="-475" y="110" width="30" height="30" as="geometry" />
        </mxCell>
        <mxCell id="JSgQllUmXxI12Hqp71UZ-68" style="edgeStyle=orthogonalEdgeStyle;rounded=0;orthogonalLoop=1;jettySize=auto;html=1;" edge="1" parent="1">
          <mxGeometry relative="1" as="geometry">
            <mxPoint x="-280.0000000000002" y="124.76470588235293" as="targetPoint" />
            <mxPoint x="-290" y="125" as="sourcePoint" />
          </mxGeometry>
        </mxCell>
        <mxCell id="JSgQllUmXxI12Hqp71UZ-53" value="&lt;font style=&quot;font-size: 18px&quot;&gt;id&lt;/font&gt;" style="text;html=1;strokeColor=none;fillColor=none;align=center;verticalAlign=middle;whiteSpace=wrap;rounded=0;" vertex="1" parent="1">
          <mxGeometry x="-250" y="110" width="30" height="30" as="geometry" />
        </mxCell>
        <mxCell id="JSgQllUmXxI12Hqp71UZ-54" value="&lt;font style=&quot;font-size: 18px&quot;&gt;id&lt;/font&gt;" style="text;html=1;strokeColor=none;fillColor=none;align=center;verticalAlign=middle;whiteSpace=wrap;rounded=0;" vertex="1" parent="1">
          <mxGeometry x="-350" y="400" width="30" height="30" as="geometry" />
        </mxCell>
        <mxCell id="JSgQllUmXxI12Hqp71UZ-57" value="&lt;font style=&quot;font-size: 18px&quot;&gt;id&lt;/font&gt;" style="text;html=1;strokeColor=none;fillColor=none;align=center;verticalAlign=middle;whiteSpace=wrap;rounded=0;" vertex="1" parent="1">
          <mxGeometry x="-600" y="560" width="30" height="30" as="geometry" />
        </mxCell>
        <mxCell id="JSgQllUmXxI12Hqp71UZ-58" value="&lt;font size=&quot;3&quot;&gt;grade_id&lt;/font&gt;" style="text;html=1;strokeColor=none;fillColor=none;align=left;verticalAlign=middle;whiteSpace=wrap;rounded=0;" vertex="1" parent="1">
          <mxGeometry x="-747" y="120" width="80" height="30" as="geometry" />
        </mxCell>
        <mxCell id="JSgQllUmXxI12Hqp71UZ-59" value="&lt;font size=&quot;3&quot;&gt;class_id&lt;/font&gt;" style="text;html=1;strokeColor=none;fillColor=none;align=left;verticalAlign=middle;whiteSpace=wrap;rounded=0;" vertex="1" parent="1">
          <mxGeometry x="-747" y="150" width="90" height="30" as="geometry" />
        </mxCell>
        <mxCell id="JSgQllUmXxI12Hqp71UZ-60" value="&lt;font size=&quot;3&quot;&gt;startDate&lt;/font&gt;" style="text;html=1;strokeColor=none;fillColor=none;align=left;verticalAlign=middle;whiteSpace=wrap;rounded=0;" vertex="1" parent="1">
          <mxGeometry x="-746" y="180" width="80" height="30" as="geometry" />
        </mxCell>
        <mxCell id="JSgQllUmXxI12Hqp71UZ-61" value="&lt;font size=&quot;3&quot;&gt;finishDate&lt;/font&gt;" style="text;html=1;strokeColor=none;fillColor=none;align=left;verticalAlign=middle;whiteSpace=wrap;rounded=0;" vertex="1" parent="1">
          <mxGeometry x="-747" y="210" width="80" height="30" as="geometry" />
        </mxCell>
        <mxCell id="JSgQllUmXxI12Hqp71UZ-66" value="&lt;font style=&quot;font-size: 14px&quot;&gt;FK&lt;/font&gt;" style="text;html=1;strokeColor=none;fillColor=none;align=center;verticalAlign=middle;whiteSpace=wrap;rounded=0;" vertex="1" parent="1">
          <mxGeometry x="-505" y="140" width="30" height="30" as="geometry" />
        </mxCell>
        <mxCell id="JSgQllUmXxI12Hqp71UZ-70" value="" style="edgeStyle=orthogonalEdgeStyle;rounded=0;orthogonalLoop=1;jettySize=auto;html=1;" edge="1" parent="1" source="JSgQllUmXxI12Hqp71UZ-18">
          <mxGeometry relative="1" as="geometry">
            <mxPoint x="-345" y="165" as="sourcePoint" />
            <mxPoint x="-280.0000000000002" y="125" as="targetPoint" />
            <Array as="points">
              <mxPoint x="-310" y="165" />
              <mxPoint x="-310" y="125" />
            </Array>
          </mxGeometry>
        </mxCell>
        <mxCell id="JSgQllUmXxI12Hqp71UZ-72" value="&lt;font size=&quot;3&quot;&gt;name&lt;/font&gt;" style="text;html=1;strokeColor=none;fillColor=none;align=left;verticalAlign=middle;whiteSpace=wrap;rounded=0;" vertex="1" parent="1">
          <mxGeometry x="-247" y="140" width="80" height="30" as="geometry" />
        </mxCell>
        <mxCell id="JSgQllUmXxI12Hqp71UZ-73" value="&lt;font size=&quot;3&quot;&gt;city_id&lt;/font&gt;" style="text;html=1;strokeColor=none;fillColor=none;align=left;verticalAlign=middle;whiteSpace=wrap;rounded=0;" vertex="1" parent="1">
          <mxGeometry x="-472" y="145" width="80" height="30" as="geometry" />
        </mxCell>
        <mxCell id="JSgQllUmXxI12Hqp71UZ-75" value="&lt;font size=&quot;3&quot;&gt;name&lt;/font&gt;" style="text;html=1;strokeColor=none;fillColor=none;align=left;verticalAlign=middle;whiteSpace=wrap;rounded=0;" vertex="1" parent="1">
          <mxGeometry x="-472" y="170" width="80" height="30" as="geometry" />
        </mxCell>
        <mxCell id="JSgQllUmXxI12Hqp71UZ-78" value="&lt;font size=&quot;3&quot;&gt;school_id&lt;/font&gt;" style="text;html=1;strokeColor=none;fillColor=none;align=left;verticalAlign=middle;whiteSpace=wrap;rounded=0;" vertex="1" parent="1">
          <mxGeometry x="-719" y="400" width="80" height="30" as="geometry" />
        </mxCell>
        <mxCell id="JSgQllUmXxI12Hqp71UZ-79" value="&lt;font size=&quot;3&quot;&gt;class_id&lt;/font&gt;" style="text;html=1;strokeColor=none;fillColor=none;align=left;verticalAlign=middle;whiteSpace=wrap;rounded=0;" vertex="1" parent="1">
          <mxGeometry x="-719" y="425" width="80" height="30" as="geometry" />
        </mxCell>
        <mxCell id="JSgQllUmXxI12Hqp71UZ-80" value="&lt;font size=&quot;3&quot;&gt;createDate&lt;/font&gt;" style="text;html=1;strokeColor=none;fillColor=none;align=left;verticalAlign=middle;whiteSpace=wrap;rounded=0;" vertex="1" parent="1">
          <mxGeometry x="-720" y="455" width="80" height="30" as="geometry" />
        </mxCell>
        <mxCell id="JSgQllUmXxI12Hqp71UZ-81" value="&lt;font size=&quot;3&quot;&gt;description&lt;/font&gt;" style="text;html=1;strokeColor=none;fillColor=none;align=left;verticalAlign=middle;whiteSpace=wrap;rounded=0;" vertex="1" parent="1">
          <mxGeometry x="-718" y="485" width="79" height="30" as="geometry" />
        </mxCell>
        <mxCell id="JSgQllUmXxI12Hqp71UZ-82" value="&lt;font size=&quot;3&quot;&gt;name&lt;/font&gt;" style="text;html=1;strokeColor=none;fillColor=none;align=left;verticalAlign=middle;whiteSpace=wrap;rounded=0;" vertex="1" parent="1">
          <mxGeometry x="-600" y="590" width="80" height="30" as="geometry" />
        </mxCell>
        <mxCell id="JSgQllUmXxI12Hqp71UZ-85" value="&lt;font size=&quot;3&quot;&gt;description&lt;/font&gt;" style="text;html=1;strokeColor=none;fillColor=none;align=left;verticalAlign=middle;whiteSpace=wrap;rounded=0;" vertex="1" parent="1">
          <mxGeometry x="-599" y="610" width="79" height="30" as="geometry" />
        </mxCell>
        <mxCell id="JSgQllUmXxI12Hqp71UZ-86" value="&lt;font size=&quot;3&quot;&gt;classLevel_id&lt;/font&gt;" style="text;html=1;strokeColor=none;fillColor=none;align=left;verticalAlign=middle;whiteSpace=wrap;rounded=0;" vertex="1" parent="1">
          <mxGeometry x="-345" y="430" width="105" height="30" as="geometry" />
        </mxCell>
        <mxCell id="JSgQllUmXxI12Hqp71UZ-87" value="&lt;font size=&quot;3&quot;&gt;name&lt;/font&gt;" style="text;html=1;strokeColor=none;fillColor=none;align=left;verticalAlign=middle;whiteSpace=wrap;rounded=0;" vertex="1" parent="1">
          <mxGeometry x="-346" y="455" width="80" height="30" as="geometry" />
        </mxCell>
        <mxCell id="JSgQllUmXxI12Hqp71UZ-88" value="&lt;font size=&quot;3&quot;&gt;description&lt;/font&gt;" style="text;html=1;strokeColor=none;fillColor=none;align=left;verticalAlign=middle;whiteSpace=wrap;rounded=0;" vertex="1" parent="1">
          <mxGeometry x="-345" y="485" width="79" height="30" as="geometry" />
        </mxCell>
        <mxCell id="JSgQllUmXxI12Hqp71UZ-93" value="" style="edgeStyle=orthogonalEdgeStyle;rounded=0;orthogonalLoop=1;jettySize=auto;html=1;exitX=0;exitY=0.25;exitDx=0;exitDy=0;" edge="1" parent="1" source="JSgQllUmXxI12Hqp71UZ-91" target="JSgQllUmXxI12Hqp71UZ-4">
          <mxGeometry relative="1" as="geometry">
            <mxPoint x="-780" y="460" as="targetPoint" />
            <Array as="points">
              <mxPoint x="-790" y="847" />
              <mxPoint x="-790" y="420" />
            </Array>
          </mxGeometry>
        </mxCell>
        <mxCell id="JSgQllUmXxI12Hqp71UZ-91" value="" style="shape=internalStorage;whiteSpace=wrap;html=1;backgroundOutline=1;strokeWidth=1;dx=30;dy=30;" vertex="1" parent="1">
          <mxGeometry x="-240" y="810" width="160" height="190" as="geometry" />
        </mxCell>
        <mxCell id="JSgQllUmXxI12Hqp71UZ-90" value="&lt;font style=&quot;font-size: 18px&quot;&gt;pupill&lt;/font&gt;" style="text;html=1;align=center;verticalAlign=middle;whiteSpace=wrap;rounded=0;strokeColor=#666666;strokeWidth=1;fontColor=#333333;fillColor=#B5B5B5;" vertex="1" parent="1">
          <mxGeometry x="-240" y="780" width="160" height="30" as="geometry" />
        </mxCell>
        <mxCell id="JSgQllUmXxI12Hqp71UZ-97" value="" style="edgeStyle=orthogonalEdgeStyle;rounded=0;orthogonalLoop=1;jettySize=auto;html=1;" edge="1" parent="1" source="JSgQllUmXxI12Hqp71UZ-95">
          <mxGeometry relative="1" as="geometry">
            <mxPoint x="-220" y="450" as="targetPoint" />
            <Array as="points">
              <mxPoint x="-185" y="480" />
              <mxPoint x="-185" y="450" />
            </Array>
          </mxGeometry>
        </mxCell>
        <mxCell id="JSgQllUmXxI12Hqp71UZ-95" value="" style="shape=internalStorage;whiteSpace=wrap;html=1;backgroundOutline=1;strokeWidth=1;dx=30;dy=30;" vertex="1" parent="1">
          <mxGeometry x="-150" y="400" width="160" height="160" as="geometry" />
        </mxCell>
        <mxCell id="JSgQllUmXxI12Hqp71UZ-96" value="&lt;font style=&quot;font-size: 18px&quot;&gt;subject&lt;/font&gt;" style="text;html=1;align=center;verticalAlign=middle;whiteSpace=wrap;rounded=0;strokeColor=#666666;strokeWidth=1;fontColor=#333333;fillColor=#B5B5B5;" vertex="1" parent="1">
          <mxGeometry x="-150" y="370" width="160" height="30" as="geometry" />
        </mxCell>
        <mxCell id="JSgQllUmXxI12Hqp71UZ-98" value="&lt;font style=&quot;font-size: 14px&quot;&gt;PK&lt;/font&gt;" style="text;html=1;strokeColor=none;fillColor=none;align=center;verticalAlign=middle;whiteSpace=wrap;rounded=0;" vertex="1" parent="1">
          <mxGeometry x="-150" y="400" width="30" height="30" as="geometry" />
        </mxCell>
        <mxCell id="JSgQllUmXxI12Hqp71UZ-99" value="&lt;font style=&quot;font-size: 18px&quot;&gt;id&lt;/font&gt;" style="text;html=1;strokeColor=none;fillColor=none;align=center;verticalAlign=middle;whiteSpace=wrap;rounded=0;" vertex="1" parent="1">
          <mxGeometry x="-120" y="400" width="30" height="30" as="geometry" />
        </mxCell>
        <mxCell id="JSgQllUmXxI12Hqp71UZ-100" value="&lt;font style=&quot;font-size: 14px&quot;&gt;PK&lt;/font&gt;" style="text;html=1;strokeColor=none;fillColor=none;align=center;verticalAlign=middle;whiteSpace=wrap;rounded=0;" vertex="1" parent="1">
          <mxGeometry x="-240" y="810" width="30" height="30" as="geometry" />
        </mxCell>
        <mxCell id="JSgQllUmXxI12Hqp71UZ-101" value="&lt;font style=&quot;font-size: 18px&quot;&gt;id&lt;/font&gt;" style="text;html=1;strokeColor=none;fillColor=none;align=center;verticalAlign=middle;whiteSpace=wrap;rounded=0;" vertex="1" parent="1">
          <mxGeometry x="-210" y="810" width="30" height="30" as="geometry" />
        </mxCell>
        <mxCell id="JSgQllUmXxI12Hqp71UZ-102" value="&lt;font size=&quot;3&quot;&gt;grade_id&lt;/font&gt;" style="text;html=1;strokeColor=none;fillColor=none;align=left;verticalAlign=middle;whiteSpace=wrap;rounded=0;" vertex="1" parent="1">
          <mxGeometry x="-700" y="145" width="80" height="30" as="geometry" />
        </mxCell>
        <mxCell id="JSgQllUmXxI12Hqp71UZ-103" value="&lt;font size=&quot;3&quot;&gt;group_id&lt;/font&gt;" style="text;html=1;strokeColor=none;fillColor=none;align=left;verticalAlign=middle;whiteSpace=wrap;rounded=0;" vertex="1" parent="1">
          <mxGeometry x="-208" y="840" width="80" height="30" as="geometry" />
        </mxCell>
        <mxCell id="JSgQllUmXxI12Hqp71UZ-104" value="&lt;font size=&quot;3&quot;&gt;firstName&lt;/font&gt;" style="text;html=1;strokeColor=none;fillColor=none;align=left;verticalAlign=middle;whiteSpace=wrap;rounded=0;" vertex="1" parent="1">
          <mxGeometry x="-207" y="870" width="80" height="30" as="geometry" />
        </mxCell>
        <mxCell id="JSgQllUmXxI12Hqp71UZ-105" value="&lt;font size=&quot;3&quot;&gt;lastName&lt;/font&gt;" style="text;html=1;strokeColor=none;fillColor=none;align=left;verticalAlign=middle;whiteSpace=wrap;rounded=0;" vertex="1" parent="1">
          <mxGeometry x="-206" y="900" width="80" height="30" as="geometry" />
        </mxCell>
        <mxCell id="JSgQllUmXxI12Hqp71UZ-106" value="&lt;font size=&quot;3&quot;&gt;gender_id&lt;/font&gt;" style="text;html=1;strokeColor=none;fillColor=none;align=left;verticalAlign=middle;whiteSpace=wrap;rounded=0;" vertex="1" parent="1">
          <mxGeometry x="-206" y="930" width="80" height="30" as="geometry" />
        </mxCell>
        <mxCell id="JSgQllUmXxI12Hqp71UZ-108" value="&lt;span style=&quot;font-size: 14px&quot;&gt;RD&lt;/span&gt;" style="text;html=1;strokeColor=none;fillColor=none;align=center;verticalAlign=middle;whiteSpace=wrap;rounded=0;" vertex="1" parent="1">
          <mxGeometry x="-210" y="960" width="30" height="30" as="geometry" />
        </mxCell>
        <mxCell id="JSgQllUmXxI12Hqp71UZ-109" value="&lt;font size=&quot;3&quot;&gt;name&lt;/font&gt;" style="text;html=1;strokeColor=none;fillColor=none;align=left;verticalAlign=middle;whiteSpace=wrap;rounded=0;" vertex="1" parent="1">
          <mxGeometry x="-120" y="485" width="80" height="30" as="geometry" />
        </mxCell>
        <mxCell id="JSgQllUmXxI12Hqp71UZ-110" value="&lt;font size=&quot;3&quot;&gt;class_id&lt;/font&gt;" style="text;html=1;strokeColor=none;fillColor=none;align=left;verticalAlign=middle;whiteSpace=wrap;rounded=0;" vertex="1" parent="1">
          <mxGeometry x="-120" y="455" width="80" height="30" as="geometry" />
        </mxCell>
        <mxCell id="JSgQllUmXxI12Hqp71UZ-111" value="&lt;font size=&quot;3&quot;&gt;parent_id&lt;/font&gt;" style="text;html=1;strokeColor=none;fillColor=none;align=left;verticalAlign=middle;whiteSpace=wrap;rounded=0;" vertex="1" parent="1">
          <mxGeometry x="-120" y="430" width="80" height="30" as="geometry" />
        </mxCell>
        <mxCell id="JSgQllUmXxI12Hqp71UZ-112" value="&lt;font size=&quot;3&quot;&gt;description&lt;/font&gt;" style="text;html=1;strokeColor=none;fillColor=none;align=left;verticalAlign=middle;whiteSpace=wrap;rounded=0;" vertex="1" parent="1">
          <mxGeometry x="-119" y="510" width="79" height="30" as="geometry" />
        </mxCell>
        <mxCell id="JSgQllUmXxI12Hqp71UZ-132" value="" style="edgeStyle=orthogonalEdgeStyle;rounded=0;orthogonalLoop=1;jettySize=auto;html=1;entryX=1.014;entryY=0.192;entryDx=0;entryDy=0;entryPerimeter=0;" edge="1" parent="1" source="JSgQllUmXxI12Hqp71UZ-117" target="JSgQllUmXxI12Hqp71UZ-95">
          <mxGeometry relative="1" as="geometry">
            <Array as="points">
              <mxPoint x="45" y="470" />
              <mxPoint x="45" y="431" />
            </Array>
          </mxGeometry>
        </mxCell>
        <mxCell id="JSgQllUmXxI12Hqp71UZ-117" value="" style="shape=internalStorage;whiteSpace=wrap;html=1;backgroundOutline=1;strokeWidth=1;dx=30;dy=30;" vertex="1" parent="1">
          <mxGeometry x="80" y="410" width="160" height="280" as="geometry" />
        </mxCell>
        <mxCell id="JSgQllUmXxI12Hqp71UZ-118" value="&lt;font style=&quot;font-size: 18px&quot;&gt;quiz&lt;/font&gt;" style="text;html=1;align=center;verticalAlign=middle;whiteSpace=wrap;rounded=0;strokeColor=#666666;strokeWidth=1;fontColor=#333333;fillColor=#B5B5B5;" vertex="1" parent="1">
          <mxGeometry x="80" y="380" width="160" height="30" as="geometry" />
        </mxCell>
        <mxCell id="JSgQllUmXxI12Hqp71UZ-120" value="&lt;font style=&quot;font-size: 18px&quot;&gt;quiz_bank&lt;/font&gt;" style="text;html=1;align=center;verticalAlign=middle;whiteSpace=wrap;rounded=0;strokeColor=#666666;strokeWidth=1;fontColor=#333333;fillColor=#B5B5B5;" vertex="1" parent="1">
          <mxGeometry x="40" y="75" width="160" height="30" as="geometry" />
        </mxCell>
        <mxCell id="JSgQllUmXxI12Hqp71UZ-121" value="" style="shape=internalStorage;whiteSpace=wrap;html=1;backgroundOutline=1;strokeWidth=1;dx=30;dy=30;" vertex="1" parent="1">
          <mxGeometry x="40" y="105" width="160" height="160" as="geometry" />
        </mxCell>
        <mxCell id="JSgQllUmXxI12Hqp71UZ-134" value="" style="edgeStyle=orthogonalEdgeStyle;rounded=0;orthogonalLoop=1;jettySize=auto;html=1;entryX=0;entryY=0;entryDx=0;entryDy=0;" edge="1" parent="1" source="JSgQllUmXxI12Hqp71UZ-122" target="JSgQllUmXxI12Hqp71UZ-126">
          <mxGeometry relative="1" as="geometry">
            <mxPoint x="70" y="400" as="targetPoint" />
            <Array as="points">
              <mxPoint x="30" y="140" />
              <mxPoint x="30" y="410" />
            </Array>
          </mxGeometry>
        </mxCell>
        <mxCell id="JSgQllUmXxI12Hqp71UZ-175" value="" style="edgeStyle=orthogonalEdgeStyle;rounded=0;orthogonalLoop=1;jettySize=auto;html=1;entryX=0;entryY=0.25;entryDx=0;entryDy=0;" edge="1" parent="1" source="JSgQllUmXxI12Hqp71UZ-122" target="JSgQllUmXxI12Hqp71UZ-169">
          <mxGeometry relative="1" as="geometry">
            <mxPoint x="300" y="230" as="targetPoint" />
            <Array as="points">
              <mxPoint x="320" y="210" />
              <mxPoint x="320" y="245" />
            </Array>
          </mxGeometry>
        </mxCell>
        <mxCell id="JSgQllUmXxI12Hqp71UZ-177" value="" style="edgeStyle=orthogonalEdgeStyle;rounded=0;orthogonalLoop=1;jettySize=auto;html=1;entryX=-0.034;entryY=0.124;entryDx=0;entryDy=0;entryPerimeter=0;" edge="1" parent="1" source="JSgQllUmXxI12Hqp71UZ-122" target="JSgQllUmXxI12Hqp71UZ-170">
          <mxGeometry relative="1" as="geometry">
            <mxPoint x="280" y="222.5" as="targetPoint" />
            <Array as="points">
              <mxPoint x="310" y="270" />
              <mxPoint x="310" y="402" />
            </Array>
          </mxGeometry>
        </mxCell>
        <mxCell id="JSgQllUmXxI12Hqp71UZ-256" value="" style="edgeStyle=orthogonalEdgeStyle;rounded=0;orthogonalLoop=1;jettySize=auto;html=1;entryX=-0.02;entryY=0.066;entryDx=0;entryDy=0;entryPerimeter=0;" edge="1" parent="1" source="JSgQllUmXxI12Hqp71UZ-122" target="JSgQllUmXxI12Hqp71UZ-235">
          <mxGeometry relative="1" as="geometry">
            <mxPoint x="430" y="160" as="targetPoint" />
            <Array as="points">
              <mxPoint x="393" y="170" />
              <mxPoint x="393" y="148" />
            </Array>
          </mxGeometry>
        </mxCell>
        <mxCell id="JSgQllUmXxI12Hqp71UZ-122" value="" style="shape=internalStorage;whiteSpace=wrap;html=1;backgroundOutline=1;strokeWidth=1;dx=30;dy=30;" vertex="1" parent="1">
          <mxGeometry x="40" y="105" width="160" height="235" as="geometry" />
        </mxCell>
        <mxCell id="JSgQllUmXxI12Hqp71UZ-123" value="&lt;span style=&quot;font-size: 14px&quot;&gt;FK&lt;/span&gt;" style="text;html=1;strokeColor=none;fillColor=none;align=center;verticalAlign=middle;whiteSpace=wrap;rounded=0;" vertex="1" parent="1">
          <mxGeometry x="40" y="165" width="30" height="30" as="geometry" />
        </mxCell>
        <mxCell id="JSgQllUmXxI12Hqp71UZ-124" value="&lt;span style=&quot;font-size: 14px&quot;&gt;FK&lt;/span&gt;" style="text;html=1;strokeColor=none;fillColor=none;align=center;verticalAlign=middle;whiteSpace=wrap;rounded=0;" vertex="1" parent="1">
          <mxGeometry x="40" y="135" width="30" height="30" as="geometry" />
        </mxCell>
        <mxCell id="JSgQllUmXxI12Hqp71UZ-125" value="&lt;font style=&quot;font-size: 14px&quot;&gt;PK&lt;/font&gt;" style="text;html=1;strokeColor=none;fillColor=none;align=center;verticalAlign=middle;whiteSpace=wrap;rounded=0;" vertex="1" parent="1">
          <mxGeometry x="40" y="105" width="30" height="30" as="geometry" />
        </mxCell>
        <mxCell id="JSgQllUmXxI12Hqp71UZ-126" value="&lt;font style=&quot;font-size: 14px&quot;&gt;PK&lt;/font&gt;" style="text;html=1;strokeColor=none;fillColor=none;align=center;verticalAlign=middle;whiteSpace=wrap;rounded=0;" vertex="1" parent="1">
          <mxGeometry x="80" y="410" width="30" height="30" as="geometry" />
        </mxCell>
        <mxCell id="JSgQllUmXxI12Hqp71UZ-127" value="&lt;font style=&quot;font-size: 18px&quot;&gt;id&lt;/font&gt;" style="text;html=1;strokeColor=none;fillColor=none;align=center;verticalAlign=middle;whiteSpace=wrap;rounded=0;" vertex="1" parent="1">
          <mxGeometry x="70" y="105" width="30" height="30" as="geometry" />
        </mxCell>
        <mxCell id="JSgQllUmXxI12Hqp71UZ-130" value="&lt;font style=&quot;font-size: 18px&quot;&gt;id&lt;/font&gt;" style="text;html=1;strokeColor=none;fillColor=none;align=center;verticalAlign=middle;whiteSpace=wrap;rounded=0;" vertex="1" parent="1">
          <mxGeometry x="110" y="410" width="30" height="30" as="geometry" />
        </mxCell>
        <mxCell id="JSgQllUmXxI12Hqp71UZ-136" value="&lt;font size=&quot;3&quot;&gt;quiz_id&lt;/font&gt;" style="text;html=1;strokeColor=none;fillColor=none;align=left;verticalAlign=middle;whiteSpace=wrap;rounded=0;" vertex="1" parent="1">
          <mxGeometry x="73" y="135" width="80" height="30" as="geometry" />
        </mxCell>
        <mxCell id="JSgQllUmXxI12Hqp71UZ-137" value="&lt;font size=&quot;3&quot;&gt;task_id&lt;/font&gt;" style="text;html=1;strokeColor=none;fillColor=none;align=left;verticalAlign=middle;whiteSpace=wrap;rounded=0;" vertex="1" parent="1">
          <mxGeometry x="73" y="165" width="80" height="30" as="geometry" />
        </mxCell>
        <mxCell id="JSgQllUmXxI12Hqp71UZ-138" value="&lt;font size=&quot;3&quot;&gt;taskLevel_id&lt;/font&gt;" style="text;html=1;strokeColor=none;fillColor=none;align=left;verticalAlign=middle;whiteSpace=wrap;rounded=0;" vertex="1" parent="1">
          <mxGeometry x="73" y="195" width="90" height="30" as="geometry" />
        </mxCell>
        <mxCell id="JSgQllUmXxI12Hqp71UZ-139" value="&lt;font size=&quot;3&quot;&gt;parent_id&lt;/font&gt;" style="text;html=1;strokeColor=none;fillColor=none;align=left;verticalAlign=middle;whiteSpace=wrap;rounded=0;" vertex="1" parent="1">
          <mxGeometry x="73" y="225" width="80" height="30" as="geometry" />
        </mxCell>
        <mxCell id="JSgQllUmXxI12Hqp71UZ-140" value="&lt;font size=&quot;3&quot;&gt;version_id&lt;/font&gt;" style="text;html=1;strokeColor=none;fillColor=none;align=left;verticalAlign=middle;whiteSpace=wrap;rounded=0;" vertex="1" parent="1">
          <mxGeometry x="73" y="250" width="80" height="30" as="geometry" />
        </mxCell>
        <mxCell id="JSgQllUmXxI12Hqp71UZ-141" value="&lt;font size=&quot;3&quot;&gt;score&lt;/font&gt;" style="text;html=1;strokeColor=none;fillColor=none;align=left;verticalAlign=middle;whiteSpace=wrap;rounded=0;" vertex="1" parent="1">
          <mxGeometry x="74" y="280" width="80" height="30" as="geometry" />
        </mxCell>
        <mxCell id="JSgQllUmXxI12Hqp71UZ-142" value="&lt;font size=&quot;3&quot;&gt;cnt&lt;/font&gt;" style="text;html=1;strokeColor=none;fillColor=none;align=left;verticalAlign=middle;whiteSpace=wrap;rounded=0;" vertex="1" parent="1">
          <mxGeometry x="73" y="310" width="80" height="30" as="geometry" />
        </mxCell>
        <mxCell id="JSgQllUmXxI12Hqp71UZ-144" value="&lt;span style=&quot;font-size: 14px&quot;&gt;FK&lt;/span&gt;" style="text;html=1;strokeColor=none;fillColor=none;align=center;verticalAlign=middle;whiteSpace=wrap;rounded=0;" vertex="1" parent="1">
          <mxGeometry x="40" y="195" width="30" height="30" as="geometry" />
        </mxCell>
        <mxCell id="JSgQllUmXxI12Hqp71UZ-145" value="&lt;span style=&quot;font-size: 14px&quot;&gt;FK&lt;/span&gt;" style="text;html=1;strokeColor=none;fillColor=none;align=center;verticalAlign=middle;whiteSpace=wrap;rounded=0;" vertex="1" parent="1">
          <mxGeometry x="40" y="225" width="30" height="30" as="geometry" />
        </mxCell>
        <mxCell id="JSgQllUmXxI12Hqp71UZ-146" value="&lt;span style=&quot;font-size: 14px&quot;&gt;FK&lt;/span&gt;" style="text;html=1;strokeColor=none;fillColor=none;align=center;verticalAlign=middle;whiteSpace=wrap;rounded=0;" vertex="1" parent="1">
          <mxGeometry x="40" y="255" width="30" height="30" as="geometry" />
        </mxCell>
        <mxCell id="JSgQllUmXxI12Hqp71UZ-147" value="&lt;font size=&quot;3&quot;&gt;subject_id&lt;/font&gt;" style="text;html=1;strokeColor=none;fillColor=none;align=left;verticalAlign=middle;whiteSpace=wrap;rounded=0;" vertex="1" parent="1">
          <mxGeometry x="113" y="440" width="80" height="30" as="geometry" />
        </mxCell>
        <mxCell id="JSgQllUmXxI12Hqp71UZ-148" value="&lt;font size=&quot;3&quot;&gt;user_id&lt;/font&gt;" style="text;html=1;strokeColor=none;fillColor=none;align=left;verticalAlign=middle;whiteSpace=wrap;rounded=0;" vertex="1" parent="1">
          <mxGeometry x="113" y="465" width="80" height="30" as="geometry" />
        </mxCell>
        <mxCell id="JSgQllUmXxI12Hqp71UZ-149" value="&lt;font size=&quot;3&quot;&gt;status_id&lt;/font&gt;" style="text;html=1;strokeColor=none;fillColor=none;align=left;verticalAlign=middle;whiteSpace=wrap;rounded=0;" vertex="1" parent="1">
          <mxGeometry x="113" y="490" width="80" height="30" as="geometry" />
        </mxCell>
        <mxCell id="JSgQllUmXxI12Hqp71UZ-150" value="&lt;font size=&quot;3&quot;&gt;workTime&lt;/font&gt;" style="text;html=1;strokeColor=none;fillColor=none;align=left;verticalAlign=middle;whiteSpace=wrap;rounded=0;" vertex="1" parent="1">
          <mxGeometry x="113" y="515" width="80" height="30" as="geometry" />
        </mxCell>
        <mxCell id="JSgQllUmXxI12Hqp71UZ-151" value="&lt;font size=&quot;3&quot;&gt;name&lt;/font&gt;" style="text;html=1;strokeColor=none;fillColor=none;align=left;verticalAlign=middle;whiteSpace=wrap;rounded=0;" vertex="1" parent="1">
          <mxGeometry x="113" y="540" width="80" height="30" as="geometry" />
        </mxCell>
        <mxCell id="JSgQllUmXxI12Hqp71UZ-152" value="&lt;font size=&quot;3&quot;&gt;description&lt;/font&gt;" style="text;html=1;strokeColor=none;fillColor=none;align=left;verticalAlign=middle;whiteSpace=wrap;rounded=0;" vertex="1" parent="1">
          <mxGeometry x="113" y="570" width="80" height="30" as="geometry" />
        </mxCell>
        <mxCell id="JSgQllUmXxI12Hqp71UZ-153" value="&lt;font size=&quot;3&quot;&gt;createDate&lt;/font&gt;" style="text;html=1;strokeColor=none;fillColor=none;align=left;verticalAlign=middle;whiteSpace=wrap;rounded=0;" vertex="1" parent="1">
          <mxGeometry x="114" y="600" width="80" height="30" as="geometry" />
        </mxCell>
        <mxCell id="JSgQllUmXxI12Hqp71UZ-154" value="&lt;font size=&quot;3&quot;&gt;modifiedDate&lt;/font&gt;" style="text;html=1;strokeColor=none;fillColor=none;align=left;verticalAlign=middle;whiteSpace=wrap;rounded=0;" vertex="1" parent="1">
          <mxGeometry x="114" y="630" width="100" height="30" as="geometry" />
        </mxCell>
        <mxCell id="JSgQllUmXxI12Hqp71UZ-155" value="&lt;font size=&quot;3&quot;&gt;isOpen&lt;/font&gt;" style="text;html=1;strokeColor=none;fillColor=none;align=left;verticalAlign=middle;whiteSpace=wrap;rounded=0;" vertex="1" parent="1">
          <mxGeometry x="113" y="660" width="100" height="30" as="geometry" />
        </mxCell>
        <mxCell id="JSgQllUmXxI12Hqp71UZ-163" value="" style="edgeStyle=orthogonalEdgeStyle;rounded=0;orthogonalLoop=1;jettySize=auto;html=1;entryX=1;entryY=0.158;entryDx=0;entryDy=0;entryPerimeter=0;" edge="1" parent="1" source="JSgQllUmXxI12Hqp71UZ-156" target="JSgQllUmXxI12Hqp71UZ-91">
          <mxGeometry relative="1" as="geometry">
            <mxPoint x="290" y="585" as="targetPoint" />
            <Array as="points">
              <mxPoint x="140" y="710" />
              <mxPoint x="140" y="840" />
            </Array>
          </mxGeometry>
        </mxCell>
        <mxCell id="JSgQllUmXxI12Hqp71UZ-179" value="" style="edgeStyle=orthogonalEdgeStyle;rounded=0;orthogonalLoop=1;jettySize=auto;html=1;entryX=0;entryY=0.25;entryDx=0;entryDy=0;exitX=0.01;exitY=0.343;exitDx=0;exitDy=0;exitPerimeter=0;" edge="1" parent="1" source="JSgQllUmXxI12Hqp71UZ-157" target="JSgQllUmXxI12Hqp71UZ-170">
          <mxGeometry relative="1" as="geometry">
            <mxPoint x="280" y="800" as="targetPoint" />
            <Array as="points">
              <mxPoint x="310" y="1086" />
              <mxPoint x="310" y="420" />
            </Array>
          </mxGeometry>
        </mxCell>
        <mxCell id="JSgQllUmXxI12Hqp71UZ-182" value="" style="edgeStyle=orthogonalEdgeStyle;rounded=0;orthogonalLoop=1;jettySize=auto;html=1;" edge="1" parent="1" source="JSgQllUmXxI12Hqp71UZ-156" target="JSgQllUmXxI12Hqp71UZ-117">
          <mxGeometry relative="1" as="geometry">
            <mxPoint x="280" y="800" as="targetPoint" />
            <Array as="points">
              <mxPoint x="300" y="730" />
              <mxPoint x="300" y="470" />
            </Array>
          </mxGeometry>
        </mxCell>
        <mxCell id="JSgQllUmXxI12Hqp71UZ-184" value="" style="edgeStyle=orthogonalEdgeStyle;rounded=0;orthogonalLoop=1;jettySize=auto;html=1;entryX=1;entryY=0.5;entryDx=0;entryDy=0;" edge="1" parent="1" source="JSgQllUmXxI12Hqp71UZ-156" target="JSgQllUmXxI12Hqp71UZ-170">
          <mxGeometry relative="1" as="geometry">
            <mxPoint x="280" y="800" as="targetPoint" />
            <Array as="points">
              <mxPoint x="320" y="800" />
              <mxPoint x="320" y="593" />
              <mxPoint x="520" y="593" />
              <mxPoint x="520" y="433" />
            </Array>
          </mxGeometry>
        </mxCell>
        <mxCell id="JSgQllUmXxI12Hqp71UZ-156" value="" style="shape=internalStorage;whiteSpace=wrap;html=1;backgroundOutline=1;strokeWidth=1;dx=30;dy=30;" vertex="1" parent="1">
          <mxGeometry x="360" y="660" width="160" height="280" as="geometry" />
        </mxCell>
        <mxCell id="JSgQllUmXxI12Hqp71UZ-165" value="" style="edgeStyle=orthogonalEdgeStyle;rounded=0;orthogonalLoop=1;jettySize=auto;html=1;entryX=1.003;entryY=0.356;entryDx=0;entryDy=0;entryPerimeter=0;" edge="1" parent="1" source="JSgQllUmXxI12Hqp71UZ-157" target="JSgQllUmXxI12Hqp71UZ-91">
          <mxGeometry relative="1" as="geometry">
            <mxPoint x="50" y="870" as="targetPoint" />
          </mxGeometry>
        </mxCell>
        <mxCell id="JSgQllUmXxI12Hqp71UZ-167" value="" style="edgeStyle=orthogonalEdgeStyle;rounded=0;orthogonalLoop=1;jettySize=auto;html=1;entryX=0;entryY=0.667;entryDx=0;entryDy=0;entryPerimeter=0;" edge="1" parent="1" source="JSgQllUmXxI12Hqp71UZ-157" target="JSgQllUmXxI12Hqp71UZ-126">
          <mxGeometry relative="1" as="geometry">
            <mxPoint x="70" y="430" as="targetPoint" />
            <Array as="points">
              <mxPoint x="60" y="1160" />
              <mxPoint x="60" y="430" />
            </Array>
          </mxGeometry>
        </mxCell>
        <mxCell id="JSgQllUmXxI12Hqp71UZ-157" value="" style="shape=internalStorage;whiteSpace=wrap;html=1;backgroundOutline=1;strokeWidth=1;dx=30;dy=30;" vertex="1" parent="1">
          <mxGeometry x="360" y="990" width="160" height="280" as="geometry" />
        </mxCell>
        <mxCell id="JSgQllUmXxI12Hqp71UZ-185" value="" style="edgeStyle=orthogonalEdgeStyle;rounded=0;orthogonalLoop=1;jettySize=auto;html=1;" edge="1" parent="1" source="JSgQllUmXxI12Hqp71UZ-158">
          <mxGeometry relative="1" as="geometry">
            <mxPoint x="588" y="144" as="targetPoint" />
            <Array as="points">
              <mxPoint x="550" y="720" />
              <mxPoint x="550" y="150" />
              <mxPoint x="588" y="150" />
            </Array>
          </mxGeometry>
        </mxCell>
        <mxCell id="JSgQllUmXxI12Hqp71UZ-187" value="" style="edgeStyle=orthogonalEdgeStyle;rounded=0;orthogonalLoop=1;jettySize=auto;html=1;entryX=1.017;entryY=0.196;entryDx=0;entryDy=0;entryPerimeter=0;" edge="1" parent="1" source="JSgQllUmXxI12Hqp71UZ-158" target="JSgQllUmXxI12Hqp71UZ-157">
          <mxGeometry relative="1" as="geometry">
            <mxPoint x="680" y="1060" as="targetPoint" />
            <Array as="points">
              <mxPoint x="550" y="870" />
              <mxPoint x="550" y="1045" />
            </Array>
          </mxGeometry>
        </mxCell>
        <mxCell id="JSgQllUmXxI12Hqp71UZ-257" value="" style="edgeStyle=orthogonalEdgeStyle;rounded=0;orthogonalLoop=1;jettySize=auto;html=1;entryX=1.007;entryY=0.342;entryDx=0;entryDy=0;entryPerimeter=0;" edge="1" parent="1" source="JSgQllUmXxI12Hqp71UZ-158" target="JSgQllUmXxI12Hqp71UZ-156">
          <mxGeometry relative="1" as="geometry" />
        </mxCell>
        <mxCell id="JSgQllUmXxI12Hqp71UZ-158" value="" style="shape=internalStorage;whiteSpace=wrap;html=1;backgroundOutline=1;strokeWidth=1;dx=30;dy=30;" vertex="1" parent="1">
          <mxGeometry x="600" y="695" width="160" height="280" as="geometry" />
        </mxCell>
        <mxCell id="JSgQllUmXxI12Hqp71UZ-159" value="&lt;font style=&quot;font-size: 18px&quot;&gt;examQuiz&lt;/font&gt;" style="text;html=1;align=center;verticalAlign=middle;whiteSpace=wrap;rounded=0;strokeColor=#666666;strokeWidth=1;fontColor=#333333;fillColor=#B5B5B5;" vertex="1" parent="1">
          <mxGeometry x="360" y="960" width="160" height="30" as="geometry" />
        </mxCell>
        <mxCell id="JSgQllUmXxI12Hqp71UZ-160" value="&lt;font style=&quot;font-size: 18px&quot;&gt;openQuiz&lt;/font&gt;" style="text;html=1;align=center;verticalAlign=middle;whiteSpace=wrap;rounded=0;strokeColor=#666666;strokeWidth=1;fontColor=#333333;fillColor=#B5B5B5;" vertex="1" parent="1">
          <mxGeometry x="360" y="630" width="160" height="30" as="geometry" />
        </mxCell>
        <mxCell id="JSgQllUmXxI12Hqp71UZ-161" value="&lt;font style=&quot;font-size: 18px&quot;&gt;chooseTask&lt;/font&gt;" style="text;html=1;align=center;verticalAlign=middle;whiteSpace=wrap;rounded=0;strokeColor=#666666;strokeWidth=1;fontColor=#333333;fillColor=#B5B5B5;" vertex="1" parent="1">
          <mxGeometry x="600" y="670" width="160" height="30" as="geometry" />
        </mxCell>
        <mxCell id="JSgQllUmXxI12Hqp71UZ-169" value="" style="shape=internalStorage;whiteSpace=wrap;html=1;backgroundOutline=1;strokeWidth=1;dx=30;dy=30;" vertex="1" parent="1">
          <mxGeometry x="350" y="220" width="160" height="100" as="geometry" />
        </mxCell>
        <mxCell id="JSgQllUmXxI12Hqp71UZ-170" value="" style="shape=internalStorage;whiteSpace=wrap;html=1;backgroundOutline=1;strokeWidth=1;dx=30;dy=30;" vertex="1" parent="1">
          <mxGeometry x="340" y="385" width="160" height="95" as="geometry" />
        </mxCell>
        <mxCell id="JSgQllUmXxI12Hqp71UZ-172" value="&lt;font style=&quot;font-size: 18px&quot;&gt;version&lt;/font&gt;" style="text;html=1;align=center;verticalAlign=middle;whiteSpace=wrap;rounded=0;strokeColor=#666666;strokeWidth=1;fontColor=#333333;fillColor=#B5B5B5;" vertex="1" parent="1">
          <mxGeometry x="340" y="355" width="160" height="30" as="geometry" />
        </mxCell>
        <mxCell id="JSgQllUmXxI12Hqp71UZ-173" value="&lt;font style=&quot;font-size: 18px&quot;&gt;taskLevel&lt;/font&gt;" style="text;html=1;align=center;verticalAlign=middle;whiteSpace=wrap;rounded=0;strokeColor=#666666;strokeWidth=1;fontColor=#333333;fillColor=#B5B5B5;" vertex="1" parent="1">
          <mxGeometry x="350" y="190" width="160" height="30" as="geometry" />
        </mxCell>
        <mxCell id="JSgQllUmXxI12Hqp71UZ-188" value="&lt;font style=&quot;font-size: 14px&quot;&gt;PK&lt;/font&gt;" style="text;html=1;strokeColor=none;fillColor=none;align=center;verticalAlign=middle;whiteSpace=wrap;rounded=0;" vertex="1" parent="1">
          <mxGeometry x="340" y="385" width="30" height="30" as="geometry" />
        </mxCell>
        <mxCell id="JSgQllUmXxI12Hqp71UZ-189" value="&lt;font style=&quot;font-size: 14px&quot;&gt;PK&lt;/font&gt;" style="text;html=1;strokeColor=none;fillColor=none;align=center;verticalAlign=middle;whiteSpace=wrap;rounded=0;" vertex="1" parent="1">
          <mxGeometry x="360" y="660" width="30" height="30" as="geometry" />
        </mxCell>
        <mxCell id="JSgQllUmXxI12Hqp71UZ-190" value="&lt;font style=&quot;font-size: 14px&quot;&gt;PK&lt;/font&gt;" style="text;html=1;strokeColor=none;fillColor=none;align=center;verticalAlign=middle;whiteSpace=wrap;rounded=0;" vertex="1" parent="1">
          <mxGeometry x="600" y="700" width="30" height="30" as="geometry" />
        </mxCell>
        <mxCell id="JSgQllUmXxI12Hqp71UZ-196" value="&lt;font style=&quot;font-size: 14px&quot;&gt;PK&lt;/font&gt;" style="text;html=1;strokeColor=none;fillColor=none;align=center;verticalAlign=middle;whiteSpace=wrap;rounded=0;" vertex="1" parent="1">
          <mxGeometry x="360" y="990" width="30" height="30" as="geometry" />
        </mxCell>
        <mxCell id="JSgQllUmXxI12Hqp71UZ-198" value="&lt;font style=&quot;font-size: 18px&quot;&gt;id&lt;/font&gt;" style="text;html=1;strokeColor=none;fillColor=none;align=center;verticalAlign=middle;whiteSpace=wrap;rounded=0;" vertex="1" parent="1">
          <mxGeometry x="370" y="385" width="30" height="30" as="geometry" />
        </mxCell>
        <mxCell id="JSgQllUmXxI12Hqp71UZ-199" value="&lt;font style=&quot;font-size: 18px&quot;&gt;id&lt;/font&gt;" style="text;html=1;strokeColor=none;fillColor=none;align=center;verticalAlign=middle;whiteSpace=wrap;rounded=0;" vertex="1" parent="1">
          <mxGeometry x="390" y="660" width="30" height="30" as="geometry" />
        </mxCell>
        <mxCell id="JSgQllUmXxI12Hqp71UZ-200" value="&lt;font style=&quot;font-size: 18px&quot;&gt;id&lt;/font&gt;" style="text;html=1;strokeColor=none;fillColor=none;align=center;verticalAlign=middle;whiteSpace=wrap;rounded=0;" vertex="1" parent="1">
          <mxGeometry x="390" y="990" width="30" height="30" as="geometry" />
        </mxCell>
        <mxCell id="JSgQllUmXxI12Hqp71UZ-201" value="&lt;font style=&quot;font-size: 18px&quot;&gt;id&lt;/font&gt;" style="text;html=1;strokeColor=none;fillColor=none;align=center;verticalAlign=middle;whiteSpace=wrap;rounded=0;" vertex="1" parent="1">
          <mxGeometry x="630" y="700" width="30" height="30" as="geometry" />
        </mxCell>
        <mxCell id="JSgQllUmXxI12Hqp71UZ-202" value="&lt;font size=&quot;3&quot;&gt;name&lt;/font&gt;" style="text;html=1;strokeColor=none;fillColor=none;align=left;verticalAlign=middle;whiteSpace=wrap;rounded=0;" vertex="1" parent="1">
          <mxGeometry x="370" y="415" width="80" height="30" as="geometry" />
        </mxCell>
        <mxCell id="JSgQllUmXxI12Hqp71UZ-203" value="&lt;font size=&quot;3&quot;&gt;version_id&lt;/font&gt;" style="text;html=1;strokeColor=none;fillColor=none;align=left;verticalAlign=middle;whiteSpace=wrap;rounded=0;" vertex="1" parent="1">
          <mxGeometry x="390" y="690" width="80" height="30" as="geometry" />
        </mxCell>
        <mxCell id="JSgQllUmXxI12Hqp71UZ-205" value="&lt;font size=&quot;3&quot;&gt;task_id&lt;/font&gt;" style="text;html=1;strokeColor=none;fillColor=none;align=left;verticalAlign=middle;whiteSpace=wrap;rounded=0;" vertex="1" parent="1">
          <mxGeometry x="630" y="730" width="80" height="30" as="geometry" />
        </mxCell>
        <mxCell id="JSgQllUmXxI12Hqp71UZ-206" value="&lt;font size=&quot;3&quot;&gt;quiz_id&lt;/font&gt;" style="text;html=1;strokeColor=none;fillColor=none;align=left;verticalAlign=middle;whiteSpace=wrap;rounded=0;shadow=1;" vertex="1" parent="1">
          <mxGeometry x="390" y="730" width="80" height="30" as="geometry" />
        </mxCell>
        <mxCell id="JSgQllUmXxI12Hqp71UZ-208" value="&lt;font size=&quot;3&quot;&gt;pupill_id&lt;/font&gt;" style="text;html=1;strokeColor=none;fillColor=none;align=left;verticalAlign=middle;whiteSpace=wrap;rounded=0;" vertex="1" parent="1">
          <mxGeometry x="390" y="760" width="80" height="30" as="geometry" />
        </mxCell>
        <mxCell id="JSgQllUmXxI12Hqp71UZ-209" value="&lt;font size=&quot;3&quot;&gt;class_id&lt;/font&gt;" style="text;html=1;strokeColor=none;fillColor=none;align=left;verticalAlign=middle;whiteSpace=wrap;rounded=0;" vertex="1" parent="1">
          <mxGeometry x="390" y="790" width="80" height="30" as="geometry" />
        </mxCell>
        <mxCell id="JSgQllUmXxI12Hqp71UZ-210" value="&lt;font size=&quot;3&quot;&gt;startDate&lt;/font&gt;" style="text;html=1;strokeColor=none;fillColor=none;align=left;verticalAlign=middle;whiteSpace=wrap;rounded=0;" vertex="1" parent="1">
          <mxGeometry x="390" y="820" width="80" height="30" as="geometry" />
        </mxCell>
        <mxCell id="JSgQllUmXxI12Hqp71UZ-211" value="&lt;font size=&quot;3&quot;&gt;endDate&lt;/font&gt;" style="text;html=1;strokeColor=none;fillColor=none;align=left;verticalAlign=middle;whiteSpace=wrap;rounded=0;" vertex="1" parent="1">
          <mxGeometry x="390" y="850" width="80" height="30" as="geometry" />
        </mxCell>
        <mxCell id="JSgQllUmXxI12Hqp71UZ-212" value="&lt;font size=&quot;3&quot;&gt;isActive&lt;/font&gt;" style="text;html=1;strokeColor=none;fillColor=none;align=left;verticalAlign=middle;whiteSpace=wrap;rounded=0;" vertex="1" parent="1">
          <mxGeometry x="390" y="880" width="80" height="30" as="geometry" />
        </mxCell>
        <mxCell id="JSgQllUmXxI12Hqp71UZ-213" value="&lt;font size=&quot;3&quot;&gt;score&lt;/font&gt;" style="text;html=1;strokeColor=none;fillColor=none;align=left;verticalAlign=middle;whiteSpace=wrap;rounded=0;" vertex="1" parent="1">
          <mxGeometry x="390" y="910" width="80" height="30" as="geometry" />
        </mxCell>
        <mxCell id="JSgQllUmXxI12Hqp71UZ-216" value="&lt;font size=&quot;3&quot;&gt;version_id&lt;/font&gt;" style="text;html=1;strokeColor=none;fillColor=none;align=left;verticalAlign=middle;whiteSpace=wrap;rounded=0;" vertex="1" parent="1">
          <mxGeometry x="390" y="1020" width="80" height="30" as="geometry" />
        </mxCell>
        <mxCell id="JSgQllUmXxI12Hqp71UZ-217" value="&lt;font size=&quot;3&quot;&gt;quiz_id&lt;/font&gt;" style="text;html=1;strokeColor=none;fillColor=none;align=left;verticalAlign=middle;whiteSpace=wrap;rounded=0;shadow=1;" vertex="1" parent="1">
          <mxGeometry x="390" y="1050" width="80" height="30" as="geometry" />
        </mxCell>
        <mxCell id="JSgQllUmXxI12Hqp71UZ-218" value="&lt;font size=&quot;3&quot;&gt;pupill_id&lt;/font&gt;" style="text;html=1;strokeColor=none;fillColor=none;align=left;verticalAlign=middle;whiteSpace=wrap;rounded=0;" vertex="1" parent="1">
          <mxGeometry x="390" y="1080" width="80" height="30" as="geometry" />
        </mxCell>
        <mxCell id="JSgQllUmXxI12Hqp71UZ-222" value="&lt;font size=&quot;3&quot;&gt;cnt&lt;/font&gt;" style="text;html=1;strokeColor=none;fillColor=none;align=left;verticalAlign=middle;whiteSpace=wrap;rounded=0;" vertex="1" parent="1">
          <mxGeometry x="390" y="1110" width="80" height="30" as="geometry" />
        </mxCell>
        <mxCell id="JSgQllUmXxI12Hqp71UZ-223" value="&lt;font size=&quot;3&quot;&gt;startDate&lt;/font&gt;" style="text;html=1;strokeColor=none;fillColor=none;align=left;verticalAlign=middle;whiteSpace=wrap;rounded=0;" vertex="1" parent="1">
          <mxGeometry x="390" y="1140" width="80" height="30" as="geometry" />
        </mxCell>
        <mxCell id="JSgQllUmXxI12Hqp71UZ-224" value="&lt;font size=&quot;3&quot;&gt;endDate&lt;/font&gt;" style="text;html=1;strokeColor=none;fillColor=none;align=left;verticalAlign=middle;whiteSpace=wrap;rounded=0;" vertex="1" parent="1">
          <mxGeometry x="390" y="1170" width="80" height="30" as="geometry" />
        </mxCell>
        <mxCell id="JSgQllUmXxI12Hqp71UZ-225" value="&lt;font size=&quot;3&quot;&gt;score&lt;/font&gt;" style="text;html=1;strokeColor=none;fillColor=none;align=left;verticalAlign=middle;whiteSpace=wrap;rounded=0;" vertex="1" parent="1">
          <mxGeometry x="390" y="1200" width="80" height="30" as="geometry" />
        </mxCell>
        <mxCell id="JSgQllUmXxI12Hqp71UZ-226" value="&lt;font size=&quot;3&quot;&gt;isActive&lt;/font&gt;" style="text;html=1;strokeColor=none;fillColor=none;align=left;verticalAlign=middle;whiteSpace=wrap;rounded=0;" vertex="1" parent="1">
          <mxGeometry x="390" y="1230" width="80" height="30" as="geometry" />
        </mxCell>
        <mxCell id="JSgQllUmXxI12Hqp71UZ-227" value="&lt;font size=&quot;3&quot;&gt;description&lt;/font&gt;" style="text;html=1;strokeColor=none;fillColor=none;align=left;verticalAlign=middle;whiteSpace=wrap;rounded=0;" vertex="1" parent="1">
          <mxGeometry x="370" y="445" width="80" height="30" as="geometry" />
        </mxCell>
        <mxCell id="JSgQllUmXxI12Hqp71UZ-230" value="&lt;font style=&quot;font-size: 14px&quot;&gt;PK&lt;/font&gt;" style="text;html=1;strokeColor=none;fillColor=none;align=center;verticalAlign=middle;whiteSpace=wrap;rounded=0;" vertex="1" parent="1">
          <mxGeometry x="350" y="220" width="30" height="30" as="geometry" />
        </mxCell>
        <mxCell id="JSgQllUmXxI12Hqp71UZ-231" value="&lt;font style=&quot;font-size: 18px&quot;&gt;id&lt;/font&gt;" style="text;html=1;strokeColor=none;fillColor=none;align=center;verticalAlign=middle;whiteSpace=wrap;rounded=0;" vertex="1" parent="1">
          <mxGeometry x="380" y="220" width="30" height="30" as="geometry" />
        </mxCell>
        <mxCell id="JSgQllUmXxI12Hqp71UZ-233" value="&lt;font size=&quot;3&quot;&gt;name&lt;/font&gt;" style="text;html=1;strokeColor=none;fillColor=none;align=left;verticalAlign=middle;whiteSpace=wrap;rounded=0;" vertex="1" parent="1">
          <mxGeometry x="380" y="255" width="80" height="30" as="geometry" />
        </mxCell>
        <mxCell id="JSgQllUmXxI12Hqp71UZ-234" value="&lt;font size=&quot;3&quot;&gt;description&lt;/font&gt;" style="text;html=1;strokeColor=none;fillColor=none;align=left;verticalAlign=middle;whiteSpace=wrap;rounded=0;" vertex="1" parent="1">
          <mxGeometry x="380" y="285" width="80" height="30" as="geometry" />
        </mxCell>
        <mxCell id="JSgQllUmXxI12Hqp71UZ-265" value="" style="edgeStyle=orthogonalEdgeStyle;rounded=0;orthogonalLoop=1;jettySize=auto;html=1;entryX=1;entryY=0.5;entryDx=0;entryDy=0;" edge="1" parent="1" source="JSgQllUmXxI12Hqp71UZ-235" target="JSgQllUmXxI12Hqp71UZ-169">
          <mxGeometry relative="1" as="geometry">
            <Array as="points">
              <mxPoint x="560" y="310" />
              <mxPoint x="560" y="270" />
            </Array>
          </mxGeometry>
        </mxCell>
        <mxCell id="JSgQllUmXxI12Hqp71UZ-298" value="" style="edgeStyle=orthogonalEdgeStyle;rounded=0;orthogonalLoop=1;jettySize=auto;html=1;entryX=0;entryY=0.171;entryDx=0;entryDy=0;entryPerimeter=0;" edge="1" parent="1" source="JSgQllUmXxI12Hqp71UZ-235" target="JSgQllUmXxI12Hqp71UZ-286">
          <mxGeometry relative="1" as="geometry">
            <mxPoint x="830" y="335" as="targetPoint" />
            <Array as="points">
              <mxPoint x="830" y="335" />
              <mxPoint x="830" y="640" />
            </Array>
          </mxGeometry>
        </mxCell>
        <mxCell id="JSgQllUmXxI12Hqp71UZ-235" value="" style="shape=internalStorage;whiteSpace=wrap;html=1;backgroundOutline=1;strokeWidth=1;dx=30;dy=30;" vertex="1" parent="1">
          <mxGeometry x="590" y="120" width="160" height="430" as="geometry" />
        </mxCell>
        <mxCell id="JSgQllUmXxI12Hqp71UZ-236" value="&lt;font style=&quot;font-size: 18px&quot;&gt;task&lt;/font&gt;" style="text;html=1;align=center;verticalAlign=middle;whiteSpace=wrap;rounded=0;strokeColor=#666666;strokeWidth=1;fontColor=#333333;fillColor=#B5B5B5;" vertex="1" parent="1">
          <mxGeometry x="590" y="90" width="160" height="30" as="geometry" />
        </mxCell>
        <mxCell id="JSgQllUmXxI12Hqp71UZ-237" value="&lt;font style=&quot;font-size: 14px&quot;&gt;FK&lt;/font&gt;" style="text;html=1;strokeColor=none;fillColor=none;align=center;verticalAlign=middle;whiteSpace=wrap;rounded=0;" vertex="1" parent="1">
          <mxGeometry x="600" y="730" width="30" height="30" as="geometry" />
        </mxCell>
        <mxCell id="JSgQllUmXxI12Hqp71UZ-238" value="&lt;font style=&quot;font-size: 14px&quot;&gt;FK&lt;/font&gt;" style="text;html=1;strokeColor=none;fillColor=none;align=center;verticalAlign=middle;whiteSpace=wrap;rounded=0;" vertex="1" parent="1">
          <mxGeometry x="600" y="760" width="30" height="30" as="geometry" />
        </mxCell>
        <mxCell id="JSgQllUmXxI12Hqp71UZ-239" value="&lt;font style=&quot;font-size: 14px&quot;&gt;FK&lt;/font&gt;" style="text;html=1;strokeColor=none;fillColor=none;align=center;verticalAlign=middle;whiteSpace=wrap;rounded=0;" vertex="1" parent="1">
          <mxGeometry x="600" y="790" width="30" height="30" as="geometry" />
        </mxCell>
        <mxCell id="JSgQllUmXxI12Hqp71UZ-240" value="&lt;font style=&quot;font-size: 14px&quot;&gt;FK&lt;/font&gt;" style="text;html=1;strokeColor=none;fillColor=none;align=center;verticalAlign=middle;whiteSpace=wrap;rounded=0;" vertex="1" parent="1">
          <mxGeometry x="600" y="820" width="30" height="30" as="geometry" />
        </mxCell>
        <mxCell id="JSgQllUmXxI12Hqp71UZ-241" value="&lt;font style=&quot;font-size: 14px&quot;&gt;PK&lt;/font&gt;" style="text;html=1;strokeColor=none;fillColor=none;align=center;verticalAlign=middle;whiteSpace=wrap;rounded=0;" vertex="1" parent="1">
          <mxGeometry x="590" y="120" width="30" height="30" as="geometry" />
        </mxCell>
        <mxCell id="JSgQllUmXxI12Hqp71UZ-242" value="&lt;font size=&quot;3&quot;&gt;version_id&lt;/font&gt;" style="text;html=1;strokeColor=none;fillColor=none;align=left;verticalAlign=middle;whiteSpace=wrap;rounded=0;" vertex="1" parent="1">
          <mxGeometry x="630" y="760" width="80" height="30" as="geometry" />
        </mxCell>
        <mxCell id="JSgQllUmXxI12Hqp71UZ-243" value="&lt;font size=&quot;3&quot;&gt;openQuiz_id&lt;/font&gt;" style="text;html=1;strokeColor=none;fillColor=none;align=left;verticalAlign=middle;whiteSpace=wrap;rounded=0;" vertex="1" parent="1">
          <mxGeometry x="630" y="790" width="100" height="30" as="geometry" />
        </mxCell>
        <mxCell id="JSgQllUmXxI12Hqp71UZ-244" value="&lt;font size=&quot;3&quot;&gt;examQuiz_id&lt;/font&gt;" style="text;html=1;strokeColor=none;fillColor=none;align=left;verticalAlign=middle;whiteSpace=wrap;rounded=0;" vertex="1" parent="1">
          <mxGeometry x="630" y="820" width="80" height="30" as="geometry" />
        </mxCell>
        <mxCell id="JSgQllUmXxI12Hqp71UZ-245" value="&lt;font size=&quot;3&quot;&gt;answer1&lt;/font&gt;" style="text;html=1;strokeColor=none;fillColor=none;align=left;verticalAlign=middle;whiteSpace=wrap;rounded=0;" vertex="1" parent="1">
          <mxGeometry x="630" y="850" width="80" height="30" as="geometry" />
        </mxCell>
        <mxCell id="JSgQllUmXxI12Hqp71UZ-246" value="&lt;font size=&quot;3&quot;&gt;score&lt;/font&gt;" style="text;html=1;strokeColor=none;fillColor=none;align=left;verticalAlign=middle;whiteSpace=wrap;rounded=0;" vertex="1" parent="1">
          <mxGeometry x="630" y="910" width="80" height="30" as="geometry" />
        </mxCell>
        <mxCell id="JSgQllUmXxI12Hqp71UZ-249" value="&lt;font size=&quot;3&quot;&gt;answer2&lt;/font&gt;" style="text;html=1;strokeColor=none;fillColor=none;align=left;verticalAlign=middle;whiteSpace=wrap;rounded=0;" vertex="1" parent="1">
          <mxGeometry x="630" y="880" width="80" height="30" as="geometry" />
        </mxCell>
        <mxCell id="JSgQllUmXxI12Hqp71UZ-250" value="&lt;font size=&quot;3&quot;&gt;chooseNdx&lt;/font&gt;" style="text;html=1;strokeColor=none;fillColor=none;align=left;verticalAlign=middle;whiteSpace=wrap;rounded=0;" vertex="1" parent="1">
          <mxGeometry x="630" y="940" width="80" height="30" as="geometry" />
        </mxCell>
        <mxCell id="JSgQllUmXxI12Hqp71UZ-251" value="&lt;font style=&quot;font-size: 14px&quot;&gt;FK&lt;/font&gt;" style="text;html=1;strokeColor=none;fillColor=none;align=center;verticalAlign=middle;whiteSpace=wrap;rounded=0;" vertex="1" parent="1">
          <mxGeometry x="590" y="150" width="30" height="30" as="geometry" />
        </mxCell>
        <mxCell id="JSgQllUmXxI12Hqp71UZ-252" value="&lt;font style=&quot;font-size: 14px&quot;&gt;FK&lt;/font&gt;" style="text;html=1;strokeColor=none;fillColor=none;align=center;verticalAlign=middle;whiteSpace=wrap;rounded=0;" vertex="1" parent="1">
          <mxGeometry x="590" y="175" width="30" height="30" as="geometry" />
        </mxCell>
        <mxCell id="JSgQllUmXxI12Hqp71UZ-260" value="&lt;font style=&quot;font-size: 14px&quot;&gt;FK&lt;/font&gt;" style="text;html=1;strokeColor=none;fillColor=none;align=center;verticalAlign=middle;whiteSpace=wrap;rounded=0;" vertex="1" parent="1">
          <mxGeometry x="590" y="200" width="30" height="30" as="geometry" />
        </mxCell>
        <mxCell id="JSgQllUmXxI12Hqp71UZ-261" value="&lt;font style=&quot;font-size: 14px&quot;&gt;FK&lt;/font&gt;" style="text;html=1;strokeColor=none;fillColor=none;align=center;verticalAlign=middle;whiteSpace=wrap;rounded=0;" vertex="1" parent="1">
          <mxGeometry x="590" y="225" width="30" height="30" as="geometry" />
        </mxCell>
        <mxCell id="JSgQllUmXxI12Hqp71UZ-262" value="&lt;font style=&quot;font-size: 14px&quot;&gt;FK&lt;/font&gt;" style="text;html=1;strokeColor=none;fillColor=none;align=center;verticalAlign=middle;whiteSpace=wrap;rounded=0;" vertex="1" parent="1">
          <mxGeometry x="590" y="250" width="30" height="30" as="geometry" />
        </mxCell>
        <mxCell id="JSgQllUmXxI12Hqp71UZ-263" value="&lt;font style=&quot;font-size: 14px&quot;&gt;FK&lt;/font&gt;" style="text;html=1;strokeColor=none;fillColor=none;align=center;verticalAlign=middle;whiteSpace=wrap;rounded=0;" vertex="1" parent="1">
          <mxGeometry x="590" y="280" width="30" height="30" as="geometry" />
        </mxCell>
        <mxCell id="JSgQllUmXxI12Hqp71UZ-264" value="&lt;font style=&quot;font-size: 14px&quot;&gt;FK&lt;/font&gt;" style="text;html=1;strokeColor=none;fillColor=none;align=center;verticalAlign=middle;whiteSpace=wrap;rounded=0;" vertex="1" parent="1">
          <mxGeometry x="590" y="310" width="30" height="30" as="geometry" />
        </mxCell>
        <mxCell id="JSgQllUmXxI12Hqp71UZ-267" value="&lt;font size=&quot;3&quot;&gt;parent_id&lt;/font&gt;" style="text;html=1;strokeColor=none;fillColor=none;align=left;verticalAlign=middle;whiteSpace=wrap;rounded=0;" vertex="1" parent="1">
          <mxGeometry x="620" y="150" width="80" height="30" as="geometry" />
        </mxCell>
        <mxCell id="JSgQllUmXxI12Hqp71UZ-268" value="&lt;font size=&quot;3&quot;&gt;taskType_id&lt;/font&gt;" style="text;html=1;strokeColor=none;fillColor=none;align=left;verticalAlign=middle;whiteSpace=wrap;rounded=0;" vertex="1" parent="1">
          <mxGeometry x="620" y="180" width="90" height="30" as="geometry" />
        </mxCell>
        <mxCell id="JSgQllUmXxI12Hqp71UZ-269" value="&lt;font size=&quot;3&quot;&gt;teacher_id&lt;/font&gt;" style="text;html=1;strokeColor=none;fillColor=none;align=left;verticalAlign=middle;whiteSpace=wrap;rounded=0;" vertex="1" parent="1">
          <mxGeometry x="620" y="210" width="80" height="30" as="geometry" />
        </mxCell>
        <mxCell id="JSgQllUmXxI12Hqp71UZ-270" value="&lt;font size=&quot;3&quot;&gt;subject_id&lt;/font&gt;" style="text;html=1;strokeColor=none;fillColor=none;align=left;verticalAlign=middle;whiteSpace=wrap;rounded=0;" vertex="1" parent="1">
          <mxGeometry x="620" y="240" width="80" height="30" as="geometry" />
        </mxCell>
        <mxCell id="JSgQllUmXxI12Hqp71UZ-272" value="&lt;font size=&quot;3&quot;&gt;taskLevel_id&lt;/font&gt;" style="text;html=1;strokeColor=none;fillColor=none;align=left;verticalAlign=middle;whiteSpace=wrap;rounded=0;" vertex="1" parent="1">
          <mxGeometry x="620" y="270" width="90" height="30" as="geometry" />
        </mxCell>
        <mxCell id="JSgQllUmXxI12Hqp71UZ-275" value="&lt;font size=&quot;3&quot;&gt;user_id&lt;/font&gt;" style="text;html=1;strokeColor=none;fillColor=none;align=left;verticalAlign=middle;whiteSpace=wrap;rounded=0;" vertex="1" parent="1">
          <mxGeometry x="620" y="300" width="80" height="30" as="geometry" />
        </mxCell>
        <mxCell id="JSgQllUmXxI12Hqp71UZ-276" value="&lt;font size=&quot;3&quot;&gt;status_id&lt;/font&gt;" style="text;html=1;strokeColor=none;fillColor=none;align=left;verticalAlign=middle;whiteSpace=wrap;rounded=0;" vertex="1" parent="1">
          <mxGeometry x="620" y="330" width="80" height="30" as="geometry" />
        </mxCell>
        <mxCell id="JSgQllUmXxI12Hqp71UZ-277" value="&lt;font size=&quot;3&quot;&gt;ndx&lt;/font&gt;" style="text;html=1;strokeColor=none;fillColor=none;align=left;verticalAlign=middle;whiteSpace=wrap;rounded=0;" vertex="1" parent="1">
          <mxGeometry x="625" y="420" width="80" height="30" as="geometry" />
        </mxCell>
        <mxCell id="JSgQllUmXxI12Hqp71UZ-279" value="&lt;font size=&quot;3&quot;&gt;question&lt;/font&gt;" style="text;html=1;strokeColor=none;fillColor=none;align=left;verticalAlign=middle;whiteSpace=wrap;rounded=0;" vertex="1" parent="1">
          <mxGeometry x="620" y="390" width="80" height="30" as="geometry" />
        </mxCell>
        <mxCell id="JSgQllUmXxI12Hqp71UZ-280" value="&lt;font size=&quot;3&quot;&gt;title&lt;/font&gt;" style="text;html=1;strokeColor=none;fillColor=none;align=left;verticalAlign=middle;whiteSpace=wrap;rounded=0;" vertex="1" parent="1">
          <mxGeometry x="620" y="362.5" width="80" height="30" as="geometry" />
        </mxCell>
        <mxCell id="JSgQllUmXxI12Hqp71UZ-281" value="&lt;font size=&quot;3&quot;&gt;description&lt;/font&gt;" style="text;html=1;strokeColor=none;fillColor=none;align=left;verticalAlign=middle;whiteSpace=wrap;rounded=0;" vertex="1" parent="1">
          <mxGeometry x="620" y="445" width="80" height="30" as="geometry" />
        </mxCell>
        <mxCell id="JSgQllUmXxI12Hqp71UZ-283" value="&lt;font size=&quot;3&quot;&gt;createdDate&lt;/font&gt;" style="text;html=1;strokeColor=none;fillColor=none;align=left;verticalAlign=middle;whiteSpace=wrap;rounded=0;" vertex="1" parent="1">
          <mxGeometry x="620" y="475" width="80" height="30" as="geometry" />
        </mxCell>
        <mxCell id="JSgQllUmXxI12Hqp71UZ-284" value="&lt;font size=&quot;3&quot;&gt;modifiedDate&lt;/font&gt;" style="text;html=1;strokeColor=none;fillColor=none;align=left;verticalAlign=middle;whiteSpace=wrap;rounded=0;" vertex="1" parent="1">
          <mxGeometry x="620" y="505" width="80" height="30" as="geometry" />
        </mxCell>
        <mxCell id="JSgQllUmXxI12Hqp71UZ-300" value="" style="edgeStyle=orthogonalEdgeStyle;rounded=0;orthogonalLoop=1;jettySize=auto;html=1;entryX=1;entryY=0.5;entryDx=0;entryDy=0;" edge="1" parent="1" source="JSgQllUmXxI12Hqp71UZ-285" target="JSgQllUmXxI12Hqp71UZ-158">
          <mxGeometry relative="1" as="geometry">
            <mxPoint x="780" y="840" as="targetPoint" />
          </mxGeometry>
        </mxCell>
        <mxCell id="JSgQllUmXxI12Hqp71UZ-285" value="" style="shape=internalStorage;whiteSpace=wrap;html=1;backgroundOutline=1;strokeWidth=1;dx=30;dy=30;" vertex="1" parent="1">
          <mxGeometry x="1020" y="840" width="160" height="280" as="geometry" />
        </mxCell>
        <mxCell id="JSgQllUmXxI12Hqp71UZ-286" value="" style="shape=internalStorage;whiteSpace=wrap;html=1;backgroundOutline=1;strokeWidth=1;dx=30;dy=30;" vertex="1" parent="1">
          <mxGeometry x="1050" y="610" width="160" height="175" as="geometry" />
        </mxCell>
        <mxCell id="JSgQllUmXxI12Hqp71UZ-296" value="" style="edgeStyle=orthogonalEdgeStyle;rounded=0;orthogonalLoop=1;jettySize=auto;html=1;entryX=1.016;entryY=0.106;entryDx=0;entryDy=0;entryPerimeter=0;" edge="1" parent="1" source="JSgQllUmXxI12Hqp71UZ-287" target="JSgQllUmXxI12Hqp71UZ-235">
          <mxGeometry relative="1" as="geometry">
            <mxPoint x="870" y="430" as="targetPoint" />
            <Array as="points">
              <mxPoint x="850" y="480" />
              <mxPoint x="850" y="166" />
            </Array>
          </mxGeometry>
        </mxCell>
        <mxCell id="JSgQllUmXxI12Hqp71UZ-303" value="" style="edgeStyle=orthogonalEdgeStyle;rounded=0;orthogonalLoop=1;jettySize=auto;html=1;entryX=0;entryY=0.25;entryDx=0;entryDy=0;" edge="1" parent="1" source="JSgQllUmXxI12Hqp71UZ-287" target="JSgQllUmXxI12Hqp71UZ-289">
          <mxGeometry relative="1" as="geometry">
            <mxPoint x="870" y="430" as="targetPoint" />
            <Array as="points">
              <mxPoint x="920" y="430" />
              <mxPoint x="920" y="90" />
            </Array>
          </mxGeometry>
        </mxCell>
        <mxCell id="JSgQllUmXxI12Hqp71UZ-287" value="" style="shape=internalStorage;whiteSpace=wrap;html=1;backgroundOutline=1;strokeWidth=1;dx=30;dy=30;" vertex="1" parent="1">
          <mxGeometry x="950" y="300" width="160" height="260" as="geometry" />
        </mxCell>
        <mxCell id="JSgQllUmXxI12Hqp71UZ-328" value="" style="edgeStyle=orthogonalEdgeStyle;rounded=0;orthogonalLoop=1;jettySize=auto;html=1;" edge="1" parent="1" source="JSgQllUmXxI12Hqp71UZ-288" target="JSgQllUmXxI12Hqp71UZ-319">
          <mxGeometry relative="1" as="geometry">
            <Array as="points">
              <mxPoint x="1340" y="471" />
              <mxPoint x="1340" y="471" />
            </Array>
          </mxGeometry>
        </mxCell>
        <mxCell id="JSgQllUmXxI12Hqp71UZ-330" value="" style="edgeStyle=orthogonalEdgeStyle;rounded=0;orthogonalLoop=1;jettySize=auto;html=1;" edge="1" parent="1" source="JSgQllUmXxI12Hqp71UZ-288" target="JSgQllUmXxI12Hqp71UZ-320">
          <mxGeometry relative="1" as="geometry">
            <Array as="points">
              <mxPoint x="1370" y="433" />
              <mxPoint x="1370" y="140" />
            </Array>
          </mxGeometry>
        </mxCell>
        <mxCell id="JSgQllUmXxI12Hqp71UZ-288" value="" style="shape=internalStorage;whiteSpace=wrap;html=1;backgroundOutline=1;strokeWidth=1;dx=30;dy=30;" vertex="1" parent="1">
          <mxGeometry x="1150" y="302.5" width="160" height="260" as="geometry" />
        </mxCell>
        <mxCell id="JSgQllUmXxI12Hqp71UZ-289" value="" style="shape=internalStorage;whiteSpace=wrap;html=1;backgroundOutline=1;strokeWidth=1;dx=30;dy=30;" vertex="1" parent="1">
          <mxGeometry x="1170" y="40" width="160" height="200" as="geometry" />
        </mxCell>
        <mxCell id="JSgQllUmXxI12Hqp71UZ-290" value="&lt;font style=&quot;font-size: 18px&quot;&gt;answer&lt;/font&gt;" style="text;html=1;align=center;verticalAlign=middle;whiteSpace=wrap;rounded=0;strokeColor=#666666;strokeWidth=1;fontColor=#333333;fillColor=#B5B5B5;" vertex="1" parent="1">
          <mxGeometry x="950" y="270" width="160" height="30" as="geometry" />
        </mxCell>
        <mxCell id="JSgQllUmXxI12Hqp71UZ-291" value="&lt;font style=&quot;font-size: 18px&quot;&gt;WfmLog&lt;/font&gt;" style="text;html=1;align=center;verticalAlign=middle;whiteSpace=wrap;rounded=0;strokeColor=#666666;strokeWidth=1;fontColor=#333333;fillColor=#B5B5B5;" vertex="1" parent="1">
          <mxGeometry x="1150" y="272.5" width="160" height="30" as="geometry" />
        </mxCell>
        <mxCell id="JSgQllUmXxI12Hqp71UZ-292" value="&lt;font style=&quot;font-size: 18px&quot;&gt;col&lt;/font&gt;" style="text;html=1;align=center;verticalAlign=middle;whiteSpace=wrap;rounded=0;strokeColor=#666666;strokeWidth=1;fontColor=#333333;fillColor=#B5B5B5;" vertex="1" parent="1">
          <mxGeometry x="1170" y="10" width="160" height="30" as="geometry" />
        </mxCell>
        <mxCell id="JSgQllUmXxI12Hqp71UZ-293" value="&lt;font style=&quot;font-size: 18px&quot;&gt;taskType&lt;/font&gt;" style="text;html=1;align=center;verticalAlign=middle;whiteSpace=wrap;rounded=0;strokeColor=#666666;strokeWidth=1;fontColor=#333333;fillColor=#B5B5B5;" vertex="1" parent="1">
          <mxGeometry x="1050" y="580" width="160" height="30" as="geometry" />
        </mxCell>
        <mxCell id="JSgQllUmXxI12Hqp71UZ-294" value="&lt;font style=&quot;font-size: 18px&quot;&gt;pupillAnswer&lt;/font&gt;" style="text;html=1;align=center;verticalAlign=middle;whiteSpace=wrap;rounded=0;strokeColor=#666666;strokeWidth=1;fontColor=#333333;fillColor=#B5B5B5;" vertex="1" parent="1">
          <mxGeometry x="1020" y="810" width="160" height="30" as="geometry" />
        </mxCell>
        <mxCell id="JSgQllUmXxI12Hqp71UZ-304" value="&lt;font style=&quot;font-size: 14px&quot;&gt;PK&lt;/font&gt;" style="text;html=1;strokeColor=none;fillColor=none;align=center;verticalAlign=middle;whiteSpace=wrap;rounded=0;" vertex="1" parent="1">
          <mxGeometry x="950" y="300" width="30" height="30" as="geometry" />
        </mxCell>
        <mxCell id="JSgQllUmXxI12Hqp71UZ-305" value="&lt;font style=&quot;font-size: 14px&quot;&gt;PK&lt;/font&gt;" style="text;html=1;strokeColor=none;fillColor=none;align=center;verticalAlign=middle;whiteSpace=wrap;rounded=0;" vertex="1" parent="1">
          <mxGeometry x="1150" y="302.5" width="30" height="30" as="geometry" />
        </mxCell>
        <mxCell id="JSgQllUmXxI12Hqp71UZ-306" value="&lt;font style=&quot;font-size: 14px&quot;&gt;PK&lt;/font&gt;" style="text;html=1;strokeColor=none;fillColor=none;align=center;verticalAlign=middle;whiteSpace=wrap;rounded=0;" vertex="1" parent="1">
          <mxGeometry x="1170" y="40" width="30" height="30" as="geometry" />
        </mxCell>
        <mxCell id="JSgQllUmXxI12Hqp71UZ-307" value="&lt;font style=&quot;font-size: 14px&quot;&gt;PK&lt;/font&gt;" style="text;html=1;strokeColor=none;fillColor=none;align=center;verticalAlign=middle;whiteSpace=wrap;rounded=0;" vertex="1" parent="1">
          <mxGeometry x="1050" y="610" width="30" height="30" as="geometry" />
        </mxCell>
        <mxCell id="JSgQllUmXxI12Hqp71UZ-308" value="&lt;font style=&quot;font-size: 14px&quot;&gt;PK&lt;/font&gt;" style="text;html=1;strokeColor=none;fillColor=none;align=center;verticalAlign=middle;whiteSpace=wrap;rounded=0;" vertex="1" parent="1">
          <mxGeometry x="1020" y="840" width="30" height="30" as="geometry" />
        </mxCell>
        <mxCell id="JSgQllUmXxI12Hqp71UZ-309" value="&lt;font style=&quot;font-size: 14px&quot;&gt;FK&lt;/font&gt;" style="text;html=1;strokeColor=none;fillColor=none;align=center;verticalAlign=middle;whiteSpace=wrap;rounded=0;" vertex="1" parent="1">
          <mxGeometry x="950" y="340" width="30" height="30" as="geometry" />
        </mxCell>
        <mxCell id="JSgQllUmXxI12Hqp71UZ-310" value="&lt;font style=&quot;font-size: 14px&quot;&gt;FK&lt;/font&gt;" style="text;html=1;strokeColor=none;fillColor=none;align=center;verticalAlign=middle;whiteSpace=wrap;rounded=0;" vertex="1" parent="1">
          <mxGeometry x="1170" y="70" width="30" height="30" as="geometry" />
        </mxCell>
        <mxCell id="JSgQllUmXxI12Hqp71UZ-311" value="&lt;font style=&quot;font-size: 14px&quot;&gt;FK&lt;/font&gt;" style="text;html=1;strokeColor=none;fillColor=none;align=center;verticalAlign=middle;whiteSpace=wrap;rounded=0;" vertex="1" parent="1">
          <mxGeometry x="1020" y="870" width="30" height="30" as="geometry" />
        </mxCell>
        <mxCell id="JSgQllUmXxI12Hqp71UZ-312" value="&lt;font style=&quot;font-size: 14px&quot;&gt;FK&lt;/font&gt;" style="text;html=1;strokeColor=none;fillColor=none;align=center;verticalAlign=middle;whiteSpace=wrap;rounded=0;" vertex="1" parent="1">
          <mxGeometry x="1020" y="900" width="30" height="30" as="geometry" />
        </mxCell>
        <mxCell id="JSgQllUmXxI12Hqp71UZ-313" value="&lt;font size=&quot;3&quot;&gt;chooseType_id&lt;/font&gt;" style="text;html=1;strokeColor=none;fillColor=none;align=left;verticalAlign=middle;whiteSpace=wrap;rounded=0;" vertex="1" parent="1">
          <mxGeometry x="1050" y="870" width="110" height="30" as="geometry" />
        </mxCell>
        <mxCell id="JSgQllUmXxI12Hqp71UZ-314" value="&lt;font style=&quot;font-size: 18px&quot;&gt;id&lt;/font&gt;" style="text;html=1;strokeColor=none;fillColor=none;align=center;verticalAlign=middle;whiteSpace=wrap;rounded=0;" vertex="1" parent="1">
          <mxGeometry x="1050" y="840" width="30" height="30" as="geometry" />
        </mxCell>
        <mxCell id="JSgQllUmXxI12Hqp71UZ-315" value="&lt;font style=&quot;font-size: 18px&quot;&gt;id&lt;/font&gt;" style="text;html=1;strokeColor=none;fillColor=none;align=center;verticalAlign=middle;whiteSpace=wrap;rounded=0;" vertex="1" parent="1">
          <mxGeometry x="1080" y="610" width="30" height="30" as="geometry" />
        </mxCell>
        <mxCell id="JSgQllUmXxI12Hqp71UZ-316" value="&lt;font style=&quot;font-size: 18px&quot;&gt;id&lt;/font&gt;" style="text;html=1;strokeColor=none;fillColor=none;align=center;verticalAlign=middle;whiteSpace=wrap;rounded=0;" vertex="1" parent="1">
          <mxGeometry x="980" y="300" width="30" height="30" as="geometry" />
        </mxCell>
        <mxCell id="JSgQllUmXxI12Hqp71UZ-317" value="&lt;font style=&quot;font-size: 18px&quot;&gt;id&lt;/font&gt;" style="text;html=1;strokeColor=none;fillColor=none;align=center;verticalAlign=middle;whiteSpace=wrap;rounded=0;" vertex="1" parent="1">
          <mxGeometry x="1180" y="302.5" width="30" height="30" as="geometry" />
        </mxCell>
        <mxCell id="JSgQllUmXxI12Hqp71UZ-318" value="&lt;font style=&quot;font-size: 18px&quot;&gt;id&lt;/font&gt;" style="text;html=1;strokeColor=none;fillColor=none;align=center;verticalAlign=middle;whiteSpace=wrap;rounded=0;" vertex="1" parent="1">
          <mxGeometry x="1200" y="40" width="30" height="30" as="geometry" />
        </mxCell>
        <mxCell id="JSgQllUmXxI12Hqp71UZ-319" value="" style="shape=internalStorage;whiteSpace=wrap;html=1;backgroundOutline=1;strokeWidth=1;dx=30;dy=30;" vertex="1" parent="1">
          <mxGeometry x="1400" y="332.5" width="160" height="277.5" as="geometry" />
        </mxCell>
        <mxCell id="JSgQllUmXxI12Hqp71UZ-331" value="" style="edgeStyle=orthogonalEdgeStyle;rounded=0;orthogonalLoop=1;jettySize=auto;html=1;" edge="1" parent="1" source="JSgQllUmXxI12Hqp71UZ-320" target="JSgQllUmXxI12Hqp71UZ-322">
          <mxGeometry relative="1" as="geometry" />
        </mxCell>
        <mxCell id="JSgQllUmXxI12Hqp71UZ-320" value="" style="shape=internalStorage;whiteSpace=wrap;html=1;backgroundOutline=1;strokeWidth=1;dx=30;dy=30;" vertex="1" parent="1">
          <mxGeometry x="1410" y="30" width="160" height="220" as="geometry" />
        </mxCell>
        <mxCell id="JSgQllUmXxI12Hqp71UZ-332" value="" style="edgeStyle=orthogonalEdgeStyle;rounded=0;orthogonalLoop=1;jettySize=auto;html=1;entryX=1.025;entryY=0.32;entryDx=0;entryDy=0;entryPerimeter=0;" edge="1" parent="1" source="JSgQllUmXxI12Hqp71UZ-321" target="JSgQllUmXxI12Hqp71UZ-319">
          <mxGeometry relative="1" as="geometry" />
        </mxCell>
        <mxCell id="JSgQllUmXxI12Hqp71UZ-321" value="" style="shape=internalStorage;whiteSpace=wrap;html=1;backgroundOutline=1;strokeWidth=1;dx=30;dy=30;" vertex="1" parent="1">
          <mxGeometry x="1630" y="310" width="160" height="250" as="geometry" />
        </mxCell>
        <mxCell id="JSgQllUmXxI12Hqp71UZ-322" value="" style="shape=internalStorage;whiteSpace=wrap;html=1;backgroundOutline=1;strokeWidth=1;dx=30;dy=30;" vertex="1" parent="1">
          <mxGeometry x="1640" y="30" width="160" height="140" as="geometry" />
        </mxCell>
        <mxCell id="JSgQllUmXxI12Hqp71UZ-323" value="&lt;font style=&quot;font-size: 18px&quot;&gt;WfmLog&lt;/font&gt;" style="text;html=1;align=center;verticalAlign=middle;whiteSpace=wrap;rounded=0;strokeColor=#666666;strokeWidth=1;fontColor=#333333;fillColor=#B5B5B5;" vertex="1" parent="1">
          <mxGeometry x="1400" y="302.5" width="160" height="30" as="geometry" />
        </mxCell>
        <mxCell id="JSgQllUmXxI12Hqp71UZ-324" value="&lt;font style=&quot;font-size: 18px&quot;&gt;WfmLog&lt;/font&gt;" style="text;html=1;align=center;verticalAlign=middle;whiteSpace=wrap;rounded=0;strokeColor=#666666;strokeWidth=1;fontColor=#333333;fillColor=#B5B5B5;" vertex="1" parent="1">
          <mxGeometry x="1630" y="280" width="160" height="30" as="geometry" />
        </mxCell>
        <mxCell id="JSgQllUmXxI12Hqp71UZ-325" value="&lt;font style=&quot;font-size: 18px&quot;&gt;WfmLog&lt;/font&gt;" style="text;html=1;align=center;verticalAlign=middle;whiteSpace=wrap;rounded=0;strokeColor=#666666;strokeWidth=1;fontColor=#333333;fillColor=#B5B5B5;" vertex="1" parent="1">
          <mxGeometry x="1410" width="160" height="30" as="geometry" />
        </mxCell>
        <mxCell id="JSgQllUmXxI12Hqp71UZ-327" value="&lt;font style=&quot;font-size: 18px&quot;&gt;WfmLog&lt;/font&gt;" style="text;html=1;align=center;verticalAlign=middle;whiteSpace=wrap;rounded=0;strokeColor=#666666;strokeWidth=1;fontColor=#333333;fillColor=#B5B5B5;" vertex="1" parent="1">
          <mxGeometry x="1640" width="160" height="30" as="geometry" />
        </mxCell>
        <mxCell id="JSgQllUmXxI12Hqp71UZ-333" value="" style="edgeStyle=orthogonalEdgeStyle;rounded=0;orthogonalLoop=1;jettySize=auto;html=1;" edge="1" parent="1" source="JSgQllUmXxI12Hqp71UZ-321">
          <mxGeometry relative="1" as="geometry">
            <mxPoint x="1630" y="435" as="sourcePoint" />
            <mxPoint x="1560" y="450" as="targetPoint" />
            <Array as="points">
              <mxPoint x="1610" y="450" />
              <mxPoint x="1610" y="471" />
              <mxPoint x="1564" y="471" />
              <mxPoint x="1564" y="450" />
            </Array>
          </mxGeometry>
        </mxCell>
        <mxCell id="JSgQllUmXxI12Hqp71UZ-337" value="&lt;font style=&quot;font-size: 14px&quot;&gt;PK&lt;/font&gt;" style="text;html=1;strokeColor=none;fillColor=none;align=center;verticalAlign=middle;whiteSpace=wrap;rounded=0;" vertex="1" parent="1">
          <mxGeometry x="1400" y="332.5" width="30" height="30" as="geometry" />
        </mxCell>
        <mxCell id="JSgQllUmXxI12Hqp71UZ-338" value="&lt;font style=&quot;font-size: 14px&quot;&gt;PK&lt;/font&gt;" style="text;html=1;strokeColor=none;fillColor=none;align=center;verticalAlign=middle;whiteSpace=wrap;rounded=0;" vertex="1" parent="1">
          <mxGeometry x="1410" y="30" width="30" height="30" as="geometry" />
        </mxCell>
        <mxCell id="JSgQllUmXxI12Hqp71UZ-339" value="&lt;font style=&quot;font-size: 14px&quot;&gt;PK&lt;/font&gt;" style="text;html=1;strokeColor=none;fillColor=none;align=center;verticalAlign=middle;whiteSpace=wrap;rounded=0;" vertex="1" parent="1">
          <mxGeometry x="1640" y="30" width="30" height="30" as="geometry" />
        </mxCell>
        <mxCell id="JSgQllUmXxI12Hqp71UZ-340" value="&lt;font style=&quot;font-size: 14px&quot;&gt;PK&lt;/font&gt;" style="text;html=1;strokeColor=none;fillColor=none;align=center;verticalAlign=middle;whiteSpace=wrap;rounded=0;" vertex="1" parent="1">
          <mxGeometry x="1630" y="310" width="30" height="30" as="geometry" />
        </mxCell>
        <mxCell id="JSgQllUmXxI12Hqp71UZ-342" value="&lt;font size=&quot;3&quot;&gt;task_id&lt;/font&gt;" style="text;html=1;strokeColor=none;fillColor=none;align=left;verticalAlign=middle;whiteSpace=wrap;rounded=0;" vertex="1" parent="1">
          <mxGeometry x="1050" y="900" width="80" height="30" as="geometry" />
        </mxCell>
        <mxCell id="JSgQllUmXxI12Hqp71UZ-343" value="&lt;font size=&quot;3&quot;&gt;col_id&lt;/font&gt;" style="text;html=1;strokeColor=none;fillColor=none;align=left;verticalAlign=middle;whiteSpace=wrap;rounded=0;" vertex="1" parent="1">
          <mxGeometry x="1050" y="930" width="80" height="30" as="geometry" />
        </mxCell>
        <mxCell id="JSgQllUmXxI12Hqp71UZ-344" value="&lt;font size=&quot;3&quot;&gt;answer1&lt;/font&gt;" style="text;html=1;strokeColor=none;fillColor=none;align=left;verticalAlign=middle;whiteSpace=wrap;rounded=0;" vertex="1" parent="1">
          <mxGeometry x="1050" y="965" width="80" height="30" as="geometry" />
        </mxCell>
        <mxCell id="JSgQllUmXxI12Hqp71UZ-345" value="&lt;font size=&quot;3&quot;&gt;answer2&lt;/font&gt;" style="text;html=1;strokeColor=none;fillColor=none;align=left;verticalAlign=middle;whiteSpace=wrap;rounded=0;" vertex="1" parent="1">
          <mxGeometry x="1050" y="995" width="80" height="30" as="geometry" />
        </mxCell>
        <mxCell id="JSgQllUmXxI12Hqp71UZ-348" value="&lt;font size=&quot;3&quot;&gt;ord&lt;/font&gt;" style="text;html=1;strokeColor=none;fillColor=none;align=left;verticalAlign=middle;whiteSpace=wrap;rounded=0;" vertex="1" parent="1">
          <mxGeometry x="1050" y="1025" width="80" height="30" as="geometry" />
        </mxCell>
        <mxCell id="JSgQllUmXxI12Hqp71UZ-350" value="&lt;font size=&quot;3&quot;&gt;score&lt;/font&gt;" style="text;html=1;strokeColor=none;fillColor=none;align=left;verticalAlign=middle;whiteSpace=wrap;rounded=0;" vertex="1" parent="1">
          <mxGeometry x="1050" y="1055" width="80" height="30" as="geometry" />
        </mxCell>
        <mxCell id="JSgQllUmXxI12Hqp71UZ-351" value="&lt;font size=&quot;3&quot;&gt;col_id&lt;/font&gt;" style="text;html=1;strokeColor=none;fillColor=none;align=left;verticalAlign=middle;whiteSpace=wrap;rounded=0;" vertex="1" parent="1">
          <mxGeometry x="980" y="332.5" width="80" height="30" as="geometry" />
        </mxCell>
        <mxCell id="JSgQllUmXxI12Hqp71UZ-352" value="&lt;font size=&quot;3&quot;&gt;task_id&lt;/font&gt;" style="text;html=1;strokeColor=none;fillColor=none;align=left;verticalAlign=middle;whiteSpace=wrap;rounded=0;" vertex="1" parent="1">
          <mxGeometry x="980" y="362.5" width="80" height="30" as="geometry" />
        </mxCell>
        <mxCell id="JSgQllUmXxI12Hqp71UZ-353" value="&lt;font size=&quot;3&quot;&gt;answer1&lt;/font&gt;" style="text;html=1;strokeColor=none;fillColor=none;align=left;verticalAlign=middle;whiteSpace=wrap;rounded=0;" vertex="1" parent="1">
          <mxGeometry x="980" y="392.5" width="80" height="30" as="geometry" />
        </mxCell>
        <mxCell id="JSgQllUmXxI12Hqp71UZ-357" value="&lt;font size=&quot;3&quot;&gt;answer2&lt;/font&gt;" style="text;html=1;strokeColor=none;fillColor=none;align=left;verticalAlign=middle;whiteSpace=wrap;rounded=0;" vertex="1" parent="1">
          <mxGeometry x="1040" y="530" width="80" height="30" as="geometry" />
        </mxCell>
        <mxCell id="JSgQllUmXxI12Hqp71UZ-358" value="&lt;font size=&quot;3&quot;&gt;answer2&lt;/font&gt;" style="text;html=1;strokeColor=none;fillColor=none;align=left;verticalAlign=middle;whiteSpace=wrap;rounded=0;" vertex="1" parent="1">
          <mxGeometry x="980" y="430" width="80" height="30" as="geometry" />
        </mxCell>
        <mxCell id="JSgQllUmXxI12Hqp71UZ-359" value="&lt;font size=&quot;3&quot;&gt;ord&lt;/font&gt;" style="text;html=1;strokeColor=none;fillColor=none;align=left;verticalAlign=middle;whiteSpace=wrap;rounded=0;" vertex="1" parent="1">
          <mxGeometry x="980" y="460" width="80" height="30" as="geometry" />
        </mxCell>
        <mxCell id="JSgQllUmXxI12Hqp71UZ-361" style="edgeStyle=orthogonalEdgeStyle;rounded=0;orthogonalLoop=1;jettySize=auto;html=1;exitX=0.25;exitY=1;exitDx=0;exitDy=0;" edge="1" parent="1">
          <mxGeometry relative="1" as="geometry">
            <mxPoint x="1000" y="550" as="sourcePoint" />
            <mxPoint x="1040.0000000000005" y="550" as="targetPoint" />
          </mxGeometry>
        </mxCell>
        <mxCell id="JSgQllUmXxI12Hqp71UZ-362" value="&lt;font size=&quot;3&quot;&gt;score&lt;/font&gt;" style="text;html=1;strokeColor=none;fillColor=none;align=left;verticalAlign=middle;whiteSpace=wrap;rounded=0;" vertex="1" parent="1">
          <mxGeometry x="980" y="490" width="80" height="30" as="geometry" />
        </mxCell>
        <mxCell id="JSgQllUmXxI12Hqp71UZ-363" value="&lt;font size=&quot;3&quot;&gt;task_type_id&lt;/font&gt;" style="text;html=1;strokeColor=none;fillColor=none;align=left;verticalAlign=middle;whiteSpace=wrap;rounded=0;" vertex="1" parent="1">
          <mxGeometry x="1200" y="70" width="110" height="30" as="geometry" />
        </mxCell>
        <mxCell id="JSgQllUmXxI12Hqp71UZ-364" value="&lt;font size=&quot;3&quot;&gt;table_id&lt;/font&gt;" style="text;html=1;strokeColor=none;fillColor=none;align=left;verticalAlign=middle;whiteSpace=wrap;rounded=0;" vertex="1" parent="1">
          <mxGeometry x="1180" y="332.5" width="80" height="30" as="geometry" />
        </mxCell>
        <mxCell id="JSgQllUmXxI12Hqp71UZ-365" value="&lt;font size=&quot;3&quot;&gt;user_id&lt;/font&gt;" style="text;html=1;strokeColor=none;fillColor=none;align=left;verticalAlign=middle;whiteSpace=wrap;rounded=0;" vertex="1" parent="1">
          <mxGeometry x="1180" y="360" width="80" height="30" as="geometry" />
        </mxCell>
        <mxCell id="JSgQllUmXxI12Hqp71UZ-366" value="&lt;font size=&quot;3&quot;&gt;description&lt;/font&gt;" style="text;html=1;strokeColor=none;fillColor=none;align=left;verticalAlign=middle;whiteSpace=wrap;rounded=0;" vertex="1" parent="1">
          <mxGeometry x="1180" y="500" width="80" height="30" as="geometry" />
        </mxCell>
        <mxCell id="JSgQllUmXxI12Hqp71UZ-367" value="&lt;font size=&quot;3&quot;&gt;name&lt;/font&gt;" style="text;html=1;strokeColor=none;fillColor=none;align=left;verticalAlign=middle;whiteSpace=wrap;rounded=0;" vertex="1" parent="1">
          <mxGeometry x="1080" y="700" width="80" height="30" as="geometry" />
        </mxCell>
        <mxCell id="JSgQllUmXxI12Hqp71UZ-368" value="&lt;font size=&quot;3&quot;&gt;description&lt;/font&gt;" style="text;html=1;strokeColor=none;fillColor=none;align=left;verticalAlign=middle;whiteSpace=wrap;rounded=0;" vertex="1" parent="1">
          <mxGeometry x="1080" y="730" width="80" height="30" as="geometry" />
        </mxCell>
        <mxCell id="JSgQllUmXxI12Hqp71UZ-369" value="&lt;font size=&quot;3&quot;&gt;description&lt;/font&gt;" style="text;html=1;strokeColor=none;fillColor=none;align=left;verticalAlign=middle;whiteSpace=wrap;rounded=0;" vertex="1" parent="1">
          <mxGeometry x="1200" y="165" width="80" height="30" as="geometry" />
        </mxCell>
        <mxCell id="JSgQllUmXxI12Hqp71UZ-370" value="&lt;font size=&quot;3&quot;&gt;name&lt;/font&gt;" style="text;html=1;strokeColor=none;fillColor=none;align=left;verticalAlign=middle;whiteSpace=wrap;rounded=0;" vertex="1" parent="1">
          <mxGeometry x="1200" y="135" width="80" height="30" as="geometry" />
        </mxCell>
        <mxCell id="JSgQllUmXxI12Hqp71UZ-371" value="&lt;font size=&quot;3&quot;&gt;picture&lt;/font&gt;" style="text;html=1;strokeColor=none;fillColor=none;align=left;verticalAlign=middle;whiteSpace=wrap;rounded=0;" vertex="1" parent="1">
          <mxGeometry x="1080" y="670" width="80" height="30" as="geometry" />
        </mxCell>
        <mxCell id="JSgQllUmXxI12Hqp71UZ-372" value="&lt;font size=&quot;3&quot;&gt;isGrid&lt;/font&gt;" style="text;html=1;strokeColor=none;fillColor=none;align=left;verticalAlign=middle;whiteSpace=wrap;rounded=0;" vertex="1" parent="1">
          <mxGeometry x="1080" y="640" width="80" height="30" as="geometry" />
        </mxCell>
        <mxCell id="JSgQllUmXxI12Hqp71UZ-373" value="&lt;font size=&quot;3&quot;&gt;modifiedDate&lt;/font&gt;" style="text;html=1;strokeColor=none;fillColor=none;align=left;verticalAlign=middle;whiteSpace=wrap;rounded=0;" vertex="1" parent="1">
          <mxGeometry x="1180" y="465" width="100" height="30" as="geometry" />
        </mxCell>
        <mxCell id="JSgQllUmXxI12Hqp71UZ-374" value="&lt;font size=&quot;3&quot;&gt;createDate&lt;/font&gt;" style="text;html=1;strokeColor=none;fillColor=none;align=left;verticalAlign=middle;whiteSpace=wrap;rounded=0;" vertex="1" parent="1">
          <mxGeometry x="1180" y="430" width="80" height="30" as="geometry" />
        </mxCell>
        <mxCell id="JSgQllUmXxI12Hqp71UZ-375" value="&lt;font size=&quot;3&quot;&gt;status_id&lt;/font&gt;" style="text;html=1;strokeColor=none;fillColor=none;align=left;verticalAlign=middle;whiteSpace=wrap;rounded=0;" vertex="1" parent="1">
          <mxGeometry x="1180" y="392.5" width="80" height="30" as="geometry" />
        </mxCell>
        <mxCell id="JSgQllUmXxI12Hqp71UZ-378" value="&lt;font size=&quot;3&quot;&gt;code&lt;/font&gt;" style="text;html=1;strokeColor=none;fillColor=none;align=left;verticalAlign=middle;whiteSpace=wrap;rounded=0;" vertex="1" parent="1">
          <mxGeometry x="1200" y="105" width="80" height="30" as="geometry" />
        </mxCell>
        <mxCell id="JSgQllUmXxI12Hqp71UZ-380" value="&lt;font size=&quot;3&quot;&gt;isGrid&lt;/font&gt;" style="text;html=1;strokeColor=none;fillColor=none;align=left;verticalAlign=middle;whiteSpace=wrap;rounded=0;" vertex="1" parent="1">
          <mxGeometry x="1430" y="362.5" width="80" height="30" as="geometry" />
        </mxCell>
        <mxCell id="JSgQllUmXxI12Hqp71UZ-381" value="&lt;font size=&quot;3&quot;&gt;picture&lt;/font&gt;" style="text;html=1;strokeColor=none;fillColor=none;align=left;verticalAlign=middle;whiteSpace=wrap;rounded=0;" vertex="1" parent="1">
          <mxGeometry x="1430" y="390" width="80" height="30" as="geometry" />
        </mxCell>
        <mxCell id="JSgQllUmXxI12Hqp71UZ-382" value="&lt;font size=&quot;3&quot;&gt;color&lt;/font&gt;" style="text;html=1;strokeColor=none;fillColor=none;align=left;verticalAlign=middle;whiteSpace=wrap;rounded=0;" vertex="1" parent="1">
          <mxGeometry x="1430" y="480" width="80" height="30" as="geometry" />
        </mxCell>
        <mxCell id="JSgQllUmXxI12Hqp71UZ-383" value="&lt;font size=&quot;3&quot;&gt;tableName&lt;/font&gt;" style="text;html=1;strokeColor=none;fillColor=none;align=left;verticalAlign=middle;whiteSpace=wrap;rounded=0;" vertex="1" parent="1">
          <mxGeometry x="1430" y="450" width="80" height="30" as="geometry" />
        </mxCell>
        <mxCell id="JSgQllUmXxI12Hqp71UZ-384" value="&lt;font size=&quot;3&quot;&gt;name&lt;/font&gt;" style="text;html=1;strokeColor=none;fillColor=none;align=left;verticalAlign=middle;whiteSpace=wrap;rounded=0;" vertex="1" parent="1">
          <mxGeometry x="1430" y="420" width="80" height="30" as="geometry" />
        </mxCell>
        <mxCell id="JSgQllUmXxI12Hqp71UZ-387" value="&lt;font size=&quot;3&quot;&gt;isActive&lt;/font&gt;" style="text;html=1;strokeColor=none;fillColor=none;align=left;verticalAlign=middle;whiteSpace=wrap;rounded=0;" vertex="1" parent="1">
          <mxGeometry x="1430" y="540" width="80" height="30" as="geometry" />
        </mxCell>
        <mxCell id="JSgQllUmXxI12Hqp71UZ-388" value="&lt;font size=&quot;3&quot;&gt;description&lt;/font&gt;" style="text;html=1;strokeColor=none;fillColor=none;align=left;verticalAlign=middle;whiteSpace=wrap;rounded=0;" vertex="1" parent="1">
          <mxGeometry x="1430" y="510" width="80" height="30" as="geometry" />
        </mxCell>
        <mxCell id="JSgQllUmXxI12Hqp71UZ-389" value="&lt;font size=&quot;3&quot;&gt;role_id&lt;/font&gt;" style="text;html=1;strokeColor=none;fillColor=none;align=left;verticalAlign=middle;whiteSpace=wrap;rounded=0;" vertex="1" parent="1">
          <mxGeometry x="1440" y="60" width="80" height="30" as="geometry" />
        </mxCell>
        <mxCell id="JSgQllUmXxI12Hqp71UZ-390" value="&lt;font size=&quot;3&quot;&gt;name&lt;/font&gt;" style="text;html=1;strokeColor=none;fillColor=none;align=left;verticalAlign=middle;whiteSpace=wrap;rounded=0;" vertex="1" parent="1">
          <mxGeometry x="1440" y="90" width="80" height="30" as="geometry" />
        </mxCell>
        <mxCell id="JSgQllUmXxI12Hqp71UZ-391" value="&lt;font size=&quot;3&quot;&gt;email&lt;/font&gt;" style="text;html=1;strokeColor=none;fillColor=none;align=left;verticalAlign=middle;whiteSpace=wrap;rounded=0;" vertex="1" parent="1">
          <mxGeometry x="1440" y="115" width="80" height="30" as="geometry" />
        </mxCell>
        <mxCell id="JSgQllUmXxI12Hqp71UZ-393" value="&lt;font size=&quot;3&quot;&gt;password&lt;/font&gt;" style="text;html=1;strokeColor=none;fillColor=none;align=left;verticalAlign=middle;whiteSpace=wrap;rounded=0;" vertex="1" parent="1">
          <mxGeometry x="1440" y="140" width="80" height="30" as="geometry" />
        </mxCell>
        <mxCell id="JSgQllUmXxI12Hqp71UZ-394" value="&lt;font size=&quot;3&quot;&gt;description&lt;/font&gt;" style="text;html=1;strokeColor=none;fillColor=none;align=left;verticalAlign=middle;whiteSpace=wrap;rounded=0;" vertex="1" parent="1">
          <mxGeometry x="1440" y="170" width="80" height="30" as="geometry" />
        </mxCell>
        <mxCell id="JSgQllUmXxI12Hqp71UZ-395" value="&lt;font size=&quot;3&quot;&gt;code&lt;/font&gt;" style="text;html=1;strokeColor=none;fillColor=none;align=left;verticalAlign=middle;whiteSpace=wrap;rounded=0;" vertex="1" parent="1">
          <mxGeometry x="1670" y="60" width="80" height="30" as="geometry" />
        </mxCell>
        <mxCell id="JSgQllUmXxI12Hqp71UZ-396" value="&lt;font size=&quot;3&quot;&gt;name&lt;/font&gt;" style="text;html=1;strokeColor=none;fillColor=none;align=left;verticalAlign=middle;whiteSpace=wrap;rounded=0;" vertex="1" parent="1">
          <mxGeometry x="1670" y="90" width="80" height="30" as="geometry" />
        </mxCell>
        <mxCell id="JSgQllUmXxI12Hqp71UZ-399" value="&lt;font size=&quot;3&quot;&gt;description&lt;/font&gt;" style="text;html=1;strokeColor=none;fillColor=none;align=left;verticalAlign=middle;whiteSpace=wrap;rounded=0;" vertex="1" parent="1">
          <mxGeometry x="1670" y="120" width="80" height="30" as="geometry" />
        </mxCell>
        <mxCell id="JSgQllUmXxI12Hqp71UZ-400" value="&lt;font style=&quot;font-size: 18px&quot;&gt;id&lt;/font&gt;" style="text;html=1;strokeColor=none;fillColor=none;align=center;verticalAlign=middle;whiteSpace=wrap;rounded=0;" vertex="1" parent="1">
          <mxGeometry x="1440" y="30" width="30" height="30" as="geometry" />
        </mxCell>
        <mxCell id="JSgQllUmXxI12Hqp71UZ-401" value="&lt;font style=&quot;font-size: 18px&quot;&gt;id&lt;/font&gt;" style="text;html=1;strokeColor=none;fillColor=none;align=center;verticalAlign=middle;whiteSpace=wrap;rounded=0;" vertex="1" parent="1">
          <mxGeometry x="1670" y="30" width="30" height="30" as="geometry" />
        </mxCell>
        <mxCell id="JSgQllUmXxI12Hqp71UZ-402" value="&lt;font style=&quot;font-size: 18px&quot;&gt;id&lt;/font&gt;" style="text;html=1;strokeColor=none;fillColor=none;align=center;verticalAlign=middle;whiteSpace=wrap;rounded=0;" vertex="1" parent="1">
          <mxGeometry x="1660" y="310" width="30" height="30" as="geometry" />
        </mxCell>
        <mxCell id="JSgQllUmXxI12Hqp71UZ-403" value="&lt;font style=&quot;font-size: 18px&quot;&gt;id&lt;/font&gt;" style="text;html=1;strokeColor=none;fillColor=none;align=center;verticalAlign=middle;whiteSpace=wrap;rounded=0;" vertex="1" parent="1">
          <mxGeometry x="1430" y="332.5" width="30" height="30" as="geometry" />
        </mxCell>
        <mxCell id="JSgQllUmXxI12Hqp71UZ-404" value="&lt;font size=&quot;3&quot;&gt;name&lt;/font&gt;" style="text;html=1;strokeColor=none;fillColor=none;align=left;verticalAlign=middle;whiteSpace=wrap;rounded=0;" vertex="1" parent="1">
          <mxGeometry x="1660" y="400" width="80" height="30" as="geometry" />
        </mxCell>
        <mxCell id="JSgQllUmXxI12Hqp71UZ-405" value="&lt;font size=&quot;3&quot;&gt;description&lt;/font&gt;" style="text;html=1;strokeColor=none;fillColor=none;align=left;verticalAlign=middle;whiteSpace=wrap;rounded=0;" vertex="1" parent="1">
          <mxGeometry x="1660" y="460" width="80" height="30" as="geometry" />
        </mxCell>
        <mxCell id="JSgQllUmXxI12Hqp71UZ-406" value="&lt;font size=&quot;3&quot;&gt;prevStatus_id&lt;/font&gt;" style="text;html=1;strokeColor=none;fillColor=none;align=left;verticalAlign=middle;whiteSpace=wrap;rounded=0;" vertex="1" parent="1">
          <mxGeometry x="1660" y="340" width="100" height="30" as="geometry" />
        </mxCell>
        <mxCell id="JSgQllUmXxI12Hqp71UZ-408" value="&lt;font size=&quot;3&quot;&gt;nextStatus_id&lt;/font&gt;" style="text;html=1;strokeColor=none;fillColor=none;align=left;verticalAlign=middle;whiteSpace=wrap;rounded=0;" vertex="1" parent="1">
          <mxGeometry x="1660" y="370" width="100" height="30" as="geometry" />
        </mxCell>
        <mxCell id="JSgQllUmXxI12Hqp71UZ-409" value="&lt;font size=&quot;3&quot;&gt;critera&lt;/font&gt;" style="text;html=1;strokeColor=none;fillColor=none;align=left;verticalAlign=middle;whiteSpace=wrap;rounded=0;" vertex="1" parent="1">
          <mxGeometry x="1660" y="430" width="80" height="30" as="geometry" />
        </mxCell>
        <mxCell id="JSgQllUmXxI12Hqp71UZ-411" value="&lt;font size=&quot;3&quot;&gt;isActive&lt;/font&gt;" style="text;html=1;strokeColor=none;fillColor=none;align=left;verticalAlign=middle;whiteSpace=wrap;rounded=0;" vertex="1" parent="1">
          <mxGeometry x="1660" y="495" width="80" height="30" as="geometry" />
        </mxCell>
      </root>
    </mxGraphModel>
  </diagram>
</mxfile>
